<svg width="1200" height="628" viewBox="0 0 1200 628" fill="none" xmlns="http://www.w3.org/2000/svg">
<g clip-path="url(#clip0_196_383)">
<rect width="1200" height="628" fill="#8FC1ED"/>
<circle cx="600.5" cy="314.5" r="193.5" fill="url(#paint0_radial_196_383)"/>
<path d="M746.334 88.2643C762.314 88.2643 775.269 75.3097 775.269 59.3294C775.269 43.3491 762.314 30.3945 746.334 30.3945C730.353 30.3945 717.399 43.3491 717.399 59.3294C717.399 75.3097 730.353 88.2643 746.334 88.2643Z" fill="#C2DAF0"/>
<path fill-rule="evenodd" clip-rule="evenodd" d="M717 59.4493C717 43.1848 730.184 30 746.449 30C762.715 30 775.899 43.1848 775.899 59.4493C775.899 75.7138 762.715 88.8986 746.449 88.8986C730.184 88.8986 717 75.7138 717 59.4493ZM774.87 59.4493C774.87 43.753 762.146 31.0288 746.449 31.0288C730.752 31.0288 718.029 43.753 718.029 59.4493C718.029 75.1454 730.752 87.8698 746.449 87.8698C762.146 87.8698 774.87 75.1454 774.87 59.4493Z" fill="#12436E"/>
<path d="M238.557 178.114L256.521 205.745L288.405 197.202L267.623 222.823L285.587 250.454L254.779 238.657L233.997 264.277L235.739 231.366L204.931 219.569L236.815 211.026L238.557 178.114Z" fill="#509EE3"/>
<path fill-rule="evenodd" clip-rule="evenodd" d="M238.268 176.594L256.89 205.237L289.944 196.38L268.4 222.94L287.021 251.585L255.085 239.355L233.542 265.915L235.347 231.797L203.408 219.567L236.463 210.71L238.268 176.594ZM239.129 179.804L237.451 211.51L206.737 219.74L236.414 231.104L234.736 262.809L254.756 238.128L284.434 249.492L267.13 222.874L287.147 198.194L256.435 206.424L239.129 179.804Z" fill="#12436E"/>
<rect x="875" y="365.293" width="72.5392" height="72.5392" transform="rotate(-135 875 365.293)" fill="#C2DAF0" stroke="#12436E"/>
<line x1="0.5" y1="-0.5" x2="213.962" y2="-0.5" transform="matrix(4.37114e-08 -1 -1 -4.37114e-08 600 154.461)" stroke="#509EE3" stroke-linecap="round"/>
<line x1="0.5" y1="-0.5" x2="213.962" y2="-0.5" transform="matrix(4.37114e-08 -1 -1 -4.37114e-08 600 688)" stroke="#509EE3" stroke-linecap="round"/>
<path d="M759.538 314.5L815.5 314.5M974 314.5L932.5 314.5" stroke="#509EE3" stroke-linecap="round"/>
<line x1="0.5" y1="-0.5" x2="213.962" y2="-0.5" transform="matrix(1 5.56363e-08 5.56363e-08 -1 226 314)" stroke="#509EE3" stroke-linecap="round"/>
<path d="M738.347 233.548L830.779 180.182" stroke="#509EE3" stroke-linecap="round"/>
<path d="M461.153 393.586L355.647 454.5" stroke="#509EE3" stroke-linecap="round"/>
<path d="M461.653 233.548L396.5 195.932" stroke="#509EE3" stroke-linecap="round"/>
<path d="M738.848 393.586L859.5 463.245" stroke="#509EE3" stroke-linecap="round"/>
<path d="M679.586 175.152L729.904 88M786.317 -9.71076L762.813 30.9994" stroke="#509EE3" stroke-linecap="round"/>
<line x1="412.817" y1="637.212" x2="519.548" y2="452.348" stroke="#509EE3" stroke-linecap="round"/>
<line x1="0.5" y1="-0.5" x2="213.962" y2="-0.5" transform="matrix(-0.5 -0.866025 -0.866025 0.5 520.231 175.836)" stroke="#509EE3" stroke-linecap="round"/>
<line x1="0.5" y1="-0.5" x2="213.962" y2="-0.5" transform="matrix(-0.5 -0.866025 -0.866025 0.5 787 637.893)" stroke="#509EE3" stroke-linecap="round"/>
<path d="M67.3338 497.264C83.3141 497.264 96.2687 484.31 96.2687 468.329C96.2687 452.349 83.3141 439.395 67.3338 439.395C51.3535 439.395 38.3989 452.349 38.3989 468.329C38.3989 484.31 51.3535 497.264 67.3338 497.264Z" fill="#C2DAF0"/>
<path fill-rule="evenodd" clip-rule="evenodd" d="M38 468.449C38 452.185 51.184 439 67.4493 439C83.7146 439 96.8986 452.185 96.8986 468.449C96.8986 484.714 83.7146 497.899 67.4493 497.899C51.184 497.899 38 484.714 38 468.449ZM95.8698 468.449C95.8698 452.753 83.1462 440.029 67.4493 440.029C51.7524 440.029 39.0288 452.753 39.0288 468.449C39.0288 484.145 51.7524 496.87 67.4493 496.87C83.1462 496.87 95.8698 484.145 95.8698 468.449Z" fill="#12436E"/>
<path d="M964.592 124.884C965.456 120.23 972.129 120.23 972.993 124.884C973.61 128.214 977.675 129.534 980.133 127.203C983.569 123.944 988.968 127.864 986.929 132.137C985.471 135.193 987.983 138.649 991.342 138.207C996.038 137.59 998.101 143.932 993.938 146.191C990.96 147.807 990.96 152.078 993.938 153.694C998.101 155.953 996.038 162.296 991.342 161.678C987.983 161.236 985.471 164.692 986.929 167.748C988.968 172.021 983.569 175.941 980.133 172.682C977.675 170.352 973.61 171.671 972.993 175.001C972.129 179.655 965.456 179.655 964.592 175.001C963.975 171.671 959.91 170.352 957.452 172.682C954.016 175.941 948.617 172.021 950.656 167.748C952.115 164.692 949.602 161.236 946.243 161.678C941.547 162.296 939.484 155.953 943.647 153.694C946.625 152.078 946.625 147.807 943.647 146.191C939.484 143.932 941.547 137.59 946.243 138.207C949.602 138.649 952.115 135.193 950.656 132.137C948.617 127.864 954.016 123.944 957.452 127.203C959.91 129.534 963.975 128.214 964.592 124.884Z" fill="#509EE3"/>
<path fill-rule="evenodd" clip-rule="evenodd" d="M957.987 127.011C960.155 128.977 963.665 127.81 964.203 124.911L964.233 124.758C965.303 119.766 972.504 119.728 973.584 124.759L973.631 124.997C974.221 127.827 977.679 128.962 979.825 127.016L980.01 126.845C983.811 123.435 989.66 127.634 987.571 132.345L987.472 132.559C986.285 135.195 988.415 138.144 991.296 137.829L991.546 137.8C996.627 137.274 998.889 144.108 994.429 146.692L994.222 146.807C991.712 148.242 991.7 151.878 994.216 153.317L994.435 153.44C998.856 155.999 996.667 162.856 991.538 162.327L991.304 162.299C988.428 161.984 986.28 164.92 987.469 167.561L987.575 167.789C989.645 172.457 983.842 176.718 980.004 173.277L979.831 173.117C977.689 171.174 974.224 172.287 973.633 175.122L973.584 175.369C972.514 180.361 965.312 180.399 964.232 175.361L964.186 175.13C963.596 172.3 960.138 171.165 957.992 173.112L957.807 173.282C954.006 176.693 948.156 172.493 950.245 167.782L950.344 167.568C951.532 164.933 949.402 161.984 946.521 162.298L946.271 162.327C941.189 162.853 938.927 156.02 943.388 153.436L943.594 153.32C946.105 151.886 946.116 148.249 943.601 146.81L943.518 146.764C938.917 144.268 941.098 137.266 946.279 137.801L946.513 137.829C949.388 138.143 951.537 135.207 950.348 132.566L950.242 132.338C948.171 127.671 953.975 123.409 957.813 126.85L957.987 127.011ZM972.576 124.968L972.551 124.856C971.608 120.993 965.955 121.103 965.214 125.099L965.192 125.21C964.431 128.859 959.94 130.283 957.219 127.702L957.121 127.611C954.086 124.89 949.467 128.331 951.238 132.042L951.283 132.139C952.818 135.546 950.01 139.327 946.299 138.839L946.166 138.823C942.11 138.405 940.398 143.901 944.013 145.862L944.107 145.915C947.352 147.77 947.304 152.479 944.015 154.264L943.898 154.329C940.371 156.372 942.218 161.825 946.297 161.288L946.403 161.276C950.12 160.87 952.851 164.708 951.239 168.084L951.183 168.206C949.531 171.931 954.233 175.256 957.218 172.426L957.296 172.353C960.065 169.843 964.53 171.343 965.213 175.021L965.239 175.153C966.094 179.136 971.854 179.065 972.604 175.023L972.624 174.918C973.387 171.26 977.883 169.85 980.597 172.425L980.696 172.516C983.731 175.237 988.349 171.796 986.578 168.086L986.533 167.989C984.999 164.581 987.807 160.8 991.518 161.288L991.651 161.304C995.707 161.723 997.419 156.226 993.804 154.265L993.71 154.213C990.465 152.357 990.513 147.648 993.802 145.863L993.919 145.798C997.446 143.755 995.599 138.303 991.52 138.839L991.413 138.851C987.697 139.257 984.966 135.42 986.578 132.043L986.634 131.921C988.285 128.197 983.584 124.871 980.599 127.701L980.52 127.774C977.752 130.284 973.286 128.784 972.604 125.106L972.576 124.968Z" fill="#12436E"/>
<path fill-rule="evenodd" clip-rule="evenodd" d="M511.82 539.621L506.964 557.743L510.832 564.703L518.63 553.775L519.048 541.558L511.82 539.621Z" fill="#8FC1ED"/>
<path fill-rule="evenodd" clip-rule="evenodd" d="M511.25 538.896L519.118 541.004L518.686 553.626L510.484 565.119L506.26 557.518L511.25 538.896ZM517.955 553.379L518.36 541.565L511.772 539.8L507.051 557.42L510.562 563.739L517.955 553.379Z" fill="#12436E"/>
<path d="M467.21 428.682C470.271 417.26 482.012 410.481 493.434 413.542L618.774 447.126C630.197 450.187 636.975 461.928 633.914 473.35L615.808 540.923C612.747 552.346 601.008 559.124 589.584 556.063L464.244 522.479C452.822 519.418 446.043 507.678 449.104 496.255L467.21 428.682Z" fill="#8FC1ED"/>
<path fill-rule="evenodd" clip-rule="evenodd" d="M633.914 473.35C636.975 461.928 630.197 450.187 618.774 447.126L493.434 413.542C482.012 410.481 470.271 417.26 467.21 428.682L449.104 496.255C446.043 507.678 452.822 519.418 464.244 522.479L589.584 556.063C601.008 559.124 612.747 552.346 615.808 540.923L633.914 473.35ZM493.243 414.255L618.583 447.84L618.912 447.931C629.741 451.021 636.126 462.241 633.201 473.159L615.095 540.732L615.003 541.061C611.914 551.89 600.694 558.276 589.775 555.35L464.436 521.765L464.106 521.673C453.277 518.584 446.892 507.365 449.817 496.446L467.924 428.873L468.015 428.544C471.105 417.715 482.325 411.329 493.243 414.255Z" fill="#12436E"/>
<path fill-rule="evenodd" clip-rule="evenodd" d="M499.419 419.732C487.997 416.672 476.256 423.45 473.195 434.872L455.089 502.445C452.029 513.869 458.807 525.608 470.23 528.669L517.121 541.233L510.832 564.704L555.035 551.392L595.569 562.254C606.993 565.315 618.732 558.537 621.793 547.114L639.899 479.541C642.96 468.118 636.182 456.378 624.759 453.317L499.419 419.732Z" fill="#C2DAF0"/>
<path d="M523.753 483.675C522.209 489.435 516.288 492.854 510.528 491.31C504.768 489.767 501.349 483.846 502.893 478.085C504.436 472.325 510.357 468.907 516.118 470.45C521.878 471.994 525.296 477.914 523.753 483.675Z" fill="#8FC1ED"/>
<path fill-rule="evenodd" clip-rule="evenodd" d="M523.753 483.675C525.296 477.914 521.878 471.994 516.118 470.45C510.357 468.907 504.436 472.325 502.893 478.085C501.349 483.846 504.768 489.767 510.528 491.31C516.288 492.854 522.209 489.435 523.753 483.675ZM503.606 478.276C505.044 472.91 510.56 469.725 515.926 471.163C521.293 472.601 524.478 478.117 523.04 483.484C521.602 488.85 516.086 492.035 510.719 490.597C505.352 489.159 502.168 483.643 503.606 478.276Z" fill="#12436E"/>
<path d="M558.163 492.896C556.62 498.656 550.699 502.074 544.939 500.531C539.178 498.987 535.76 493.067 537.303 487.306C538.847 481.546 544.768 478.127 550.528 479.671C556.288 481.214 559.707 487.135 558.163 492.896Z" fill="#8FC1ED"/>
<path fill-rule="evenodd" clip-rule="evenodd" d="M558.163 492.896C559.707 487.135 556.288 481.214 550.528 479.671C544.768 478.127 538.847 481.546 537.303 487.306C535.76 493.067 539.178 498.987 544.939 500.531C550.699 502.074 556.62 498.656 558.163 492.896ZM538.016 487.497C539.454 482.131 544.97 478.946 550.337 480.384C555.704 481.822 558.888 487.338 557.45 492.705C556.012 498.071 550.496 501.256 545.13 499.818C539.763 498.38 536.578 492.864 538.016 487.497Z" fill="#12436E"/>
<path d="M592.574 502.115C591.031 507.876 585.11 511.294 579.349 509.751C573.589 508.207 570.17 502.286 571.714 496.526C573.257 490.765 579.178 487.347 584.939 488.89C590.699 490.434 594.118 496.355 592.574 502.115Z" fill="#8FC1ED"/>
<path fill-rule="evenodd" clip-rule="evenodd" d="M592.574 502.115C594.118 496.355 590.699 490.434 584.939 488.89C579.178 487.347 573.257 490.765 571.714 496.526C570.17 502.286 573.589 508.207 579.349 509.751C585.11 511.294 591.031 507.876 592.574 502.115ZM572.427 496.717C573.865 491.35 579.381 488.166 584.748 489.604C590.114 491.042 593.299 496.558 591.861 501.924C590.423 507.291 584.907 510.476 579.54 509.038C574.174 507.6 570.989 502.084 572.427 496.717Z" fill="#12436E"/>
<path fill-rule="evenodd" clip-rule="evenodd" d="M499.563 419.197L624.902 452.782C636.522 455.895 643.417 467.838 640.304 479.457L622.198 547.03C619.084 558.65 607.141 565.545 595.522 562.432L555.089 551.598L510.352 565.07L516.716 541.316L470.182 528.847C458.679 525.765 451.806 514.028 454.69 502.52L454.781 502.171L472.887 434.598C476 422.979 487.943 416.083 499.563 419.197ZM624.711 453.495L499.372 419.91C488.146 416.902 476.608 423.564 473.6 434.789L455.494 502.362C452.486 513.588 459.148 525.126 470.373 528.134L517.621 540.794L511.408 563.981L555.076 550.83L595.713 561.718C606.938 564.726 618.477 558.065 621.484 546.839L639.591 479.266C642.598 468.041 635.937 456.503 624.711 453.495Z" fill="#12436E"/>
<path fill-rule="evenodd" clip-rule="evenodd" d="M840.408 134.159L847.384 188.589L1008.06 63.3975L920.721 91.3324L840.408 134.159Z" fill="#509EE3"/>
<path fill-rule="evenodd" clip-rule="evenodd" d="M1010.54 62.0371L847.307 189.223L840.194 133.726L920.811 90.737L1010.54 62.0371ZM847.984 187.579L1006.1 64.3812L921.154 91.5509L841.144 134.216L847.984 187.579Z" fill="#12436E"/>
<path fill-rule="evenodd" clip-rule="evenodd" d="M847.448 188.591C847.448 188.591 861.507 145.026 862.598 145.026C863.688 145.026 887.492 149.007 887.492 149.007L883.646 160.106L847.448 188.591Z" fill="#8FC1ED"/>
<path fill-rule="evenodd" clip-rule="evenodd" d="M861.134 147.297C862.015 145.087 862.366 144.396 862.859 144.396C863.558 144.396 870.412 145.482 883.695 147.693L888.339 148.468L884.28 160.181L846.847 189.638L847.71 186.967C852.009 173.662 855.373 163.497 857.803 156.471L858.177 155.391C859.344 152.04 860.277 149.474 860.978 147.691L861.134 147.297ZM863.16 145.3L863.014 145.285L862.992 145.32C862.948 145.39 862.896 145.482 862.838 145.594L862.778 145.712C862.577 146.116 862.317 146.714 862 147.502L861.874 147.817C861.184 149.56 860.25 152.119 859.074 155.493L858.571 156.941C856.427 163.147 853.563 171.771 849.98 182.813L848.572 187.161L883.533 159.649L887.167 149.164L882.235 148.343C871.088 146.49 864.667 145.467 863.16 145.3Z" fill="#12436E"/>
<path fill-rule="evenodd" clip-rule="evenodd" d="M780.123 104.136L1008.06 63.3975L840.375 134.244L780.123 104.136Z" fill="#C2DAF0"/>
<path fill-rule="evenodd" clip-rule="evenodd" d="M1012.12 62.083L840.621 134.538L779 103.747L1012.12 62.083ZM840.652 133.57L1004.53 64.3327L781.768 104.146L840.652 133.57Z" fill="#12436E"/>
<path fill-rule="evenodd" clip-rule="evenodd" d="M862.63 145.006L1008.06 63.3975L928.214 194.089L862.63 145.006Z" fill="#C2DAF0"/>
<path fill-rule="evenodd" clip-rule="evenodd" d="M1009.58 62L928.6 194.542L862.086 144.764L1009.58 62ZM928.353 193.257L1007.07 64.4162L863.696 144.869L928.353 193.257Z" fill="#12436E"/>
<path fill-rule="evenodd" clip-rule="evenodd" d="M159.074 612.356C159.074 612.356 153.918 626.765 151.943 631.375C149.967 635.988 148.89 641.388 143.266 643.738C137.642 646.087 133.936 647.113 133.936 647.113C133.936 647.113 131.541 647.881 134.219 649.209C136.897 650.537 217.752 672.025 217.752 672.025C217.752 672.025 225.467 673.827 223.56 671.635C221.652 669.442 214.057 663.87 214.573 657.289C215.089 650.706 218.758 628.693 218.758 628.693L159.074 612.356Z" fill="#8FC1ED"/>
<path d="M151.254 633.393L159.088 612.36L218.342 628.237C217.921 631.247 216.714 639.923 215.257 650.542C213.434 663.818 218.528 665.53 221.454 668.859C223.793 671.521 223.179 672.635 222.578 672.862C193.311 665.674 134.547 650.847 133.645 649.032C132.518 646.764 136.758 646.048 142.806 644.2C147.645 642.721 150.454 636.378 151.254 633.393Z" fill="#8FC1ED"/>
<path fill-rule="evenodd" clip-rule="evenodd" d="M158.918 611.732L218.972 627.823L218.917 628.215C218.496 631.227 217.289 639.91 215.829 650.541C214.924 657.128 215.746 660.769 217.093 663.16C217.769 664.36 218.589 665.267 219.436 666.089C219.702 666.348 219.976 666.605 220.25 666.859C220.832 667.399 221.414 667.94 221.92 668.517C223.112 669.871 223.618 670.905 223.695 671.685C223.776 672.511 223.37 673.049 222.867 673.237L222.736 673.286L222.603 673.252C207.96 669.658 185.94 664.151 167.467 659.315C158.23 656.898 149.878 654.649 143.776 652.888C140.727 652.009 138.234 651.248 136.474 650.65C135.594 650.353 134.888 650.094 134.385 649.876C134.134 649.768 133.922 649.666 133.76 649.571C133.68 649.522 133.602 649.472 133.536 649.418C133.476 649.369 133.391 649.288 133.335 649.176C133.168 648.839 133.084 648.497 133.112 648.157C133.14 647.812 133.279 647.511 133.493 647.242C133.902 646.734 134.608 646.34 135.455 645.988C136.603 645.513 138.171 645.06 139.986 644.535C140.862 644.282 141.798 644.011 142.771 643.71C145.047 643.015 146.887 641.158 148.269 639.051C149.648 636.949 150.534 634.66 150.923 633.207L150.928 633.187L158.918 611.732ZM159.472 612.806L151.781 633.46C151.368 634.992 150.448 637.361 149.018 639.54C147.584 641.726 145.597 643.784 143.032 644.569C142.012 644.878 141.053 645.156 140.165 645.414C138.386 645.929 136.898 646.359 135.798 646.814C134.968 647.159 134.448 647.483 134.19 647.805C134.069 647.955 134.015 648.093 134.003 648.23C133.993 648.36 134.018 648.526 134.115 648.736C134.135 648.751 134.167 648.771 134.214 648.799C134.33 648.867 134.502 648.954 134.739 649.054C135.21 649.256 135.889 649.509 136.761 649.803C138.501 650.396 140.978 651.15 144.024 652.028C150.115 653.784 158.459 656.032 167.693 658.45C186.09 663.265 208.008 668.747 222.648 672.342C222.74 672.264 222.837 672.104 222.804 671.774C222.755 671.275 222.398 670.418 221.248 669.106C220.772 668.564 220.246 668.076 219.686 667.554C219.404 667.295 219.113 667.021 218.813 666.731C217.936 665.881 217.05 664.903 216.312 663.6C214.837 660.979 214.022 657.119 214.943 650.42C216.343 640.217 217.513 631.808 217.978 628.483L159.472 612.806Z" fill="#12436E"/>
<path fill-rule="evenodd" clip-rule="evenodd" d="M317.306 659.792L58.4516 590.432C53.6769 589.153 50.8439 584.243 52.1243 579.465L100.223 399.958C101.503 395.181 106.412 392.345 111.186 393.624L370.041 462.984C374.814 464.263 377.649 469.174 376.369 473.951L328.27 653.458C326.99 658.236 322.079 661.071 317.306 659.792Z" fill="#8FC1ED"/>
<path fill-rule="evenodd" clip-rule="evenodd" d="M58.6831 589.569L317.538 658.928C321.835 660.08 326.254 657.527 327.406 653.226L375.505 473.72C376.657 469.419 374.107 464.999 369.809 463.848L110.955 394.488C106.657 393.336 102.239 395.889 101.086 400.19L52.9876 579.696C51.8351 583.997 54.3851 588.417 58.6831 589.569ZM58.4516 590.432L317.306 659.792C322.079 661.071 326.99 658.236 328.27 653.458L376.369 473.951C377.649 469.174 374.814 464.263 370.041 462.984L111.186 393.624C106.412 392.345 101.503 395.181 100.223 399.958L52.1243 579.465C50.8439 584.243 53.6769 589.153 58.4516 590.432Z" fill="#12436E"/>
<path fill-rule="evenodd" clip-rule="evenodd" d="M61.3478 581.91L321.048 651.497L368.553 474.207L108.853 404.62L61.3478 581.91Z" fill="#12436E"/>
<path fill-rule="evenodd" clip-rule="evenodd" d="M321.048 651.497L61.3478 581.91L108.853 404.62L368.553 474.207L321.048 651.497ZM367.459 474.839L109.484 405.715L62.4421 581.277L320.417 650.402L367.459 474.839Z" fill="#12436E"/>
<path fill-rule="evenodd" clip-rule="evenodd" d="M201.355 603.733C200.312 607.625 196.514 609.99 192.87 609.013C189.227 608.037 187.12 604.09 188.163 600.198C189.206 596.305 193.005 593.941 196.648 594.917C200.291 595.893 202.398 599.84 201.355 603.733Z" fill="white"/>
<path fill-rule="evenodd" clip-rule="evenodd" d="M193.103 608.144C196.223 608.98 199.565 606.962 200.492 603.501C201.42 600.041 199.535 596.622 196.415 595.786C193.295 594.95 189.953 596.968 189.026 600.429C188.098 603.89 189.984 607.308 193.103 608.144ZM192.87 609.013C196.514 609.99 200.312 607.625 201.355 603.733C202.398 599.84 200.291 595.893 196.648 594.917C193.005 593.941 189.206 596.305 188.163 600.198C187.12 604.09 189.227 608.037 192.87 609.013Z" fill="#12436E"/>
<path fill-rule="evenodd" clip-rule="evenodd" d="M331.35 614.741L70.3231 544.799L106.719 408.966C107.666 405.433 111.294 403.336 114.823 404.281L363.371 470.88C366.901 471.826 368.993 475.456 368.046 478.988L331.73 614.52C331.686 614.686 331.516 614.785 331.35 614.741Z" fill="white"/>
<path fill-rule="evenodd" clip-rule="evenodd" d="M331.017 613.726L367.182 478.757C368.001 475.701 366.192 472.562 363.14 471.744L114.591 405.146C111.539 404.328 108.401 406.142 107.583 409.197L71.418 544.166L331.017 613.726ZM331.35 614.741C331.516 614.785 331.686 614.686 331.73 614.52L368.046 478.988C368.993 475.456 366.901 471.826 363.371 470.88L114.823 404.281C111.294 403.336 107.666 405.433 106.719 408.966L70.3231 544.799L331.35 614.741Z" fill="#12436E"/>
<path d="M112.47 404.813C108.882 403.852 105.015 406.653 103.831 411.07L58.3242 580.904L323.681 652.007C323.853 652.053 324.033 651.921 324.089 651.713L369.495 482.255C370.679 477.838 368.729 473.477 365.143 472.516" fill="white"/>
<path fill-rule="evenodd" clip-rule="evenodd" d="M112.518 404.632C108.931 403.671 105.057 406.494 103.867 410.938L58.0821 581.808L323.439 652.91C323.611 652.956 323.792 652.823 323.848 652.613L369.531 482.123C370.721 477.679 368.777 473.296 365.191 472.336L364.96 473.199C367.908 473.989 369.778 477.742 368.667 481.891L323.114 651.897L59.1769 581.176L104.73 411.17C105.842 407.021 109.34 404.706 112.287 405.495L112.518 404.632Z" fill="#12436E"/>
<path fill-rule="evenodd" clip-rule="evenodd" d="M359.858 493.377L106.798 425.57C103.367 424.651 101.317 421.178 102.218 417.813L104.716 408.492C105.618 405.127 109.13 403.145 112.56 404.064L365.62 471.871C369.05 472.79 371.101 476.263 370.199 479.628L367.702 488.949C366.8 492.314 363.288 494.296 359.858 493.377Z" fill="#8FC1ED"/>
<path fill-rule="evenodd" clip-rule="evenodd" d="M107.028 424.71L360.088 492.517C363.054 493.312 366.067 491.594 366.838 488.718L369.335 479.396C370.106 476.52 368.355 473.526 365.39 472.731L112.33 404.924C109.363 404.129 106.35 405.846 105.579 408.723L103.082 418.045C102.311 420.921 104.061 423.915 107.028 424.71ZM106.798 425.57L359.858 493.377C363.288 494.296 366.8 492.314 367.702 488.949L370.199 479.628C371.101 476.263 369.05 472.79 365.62 471.871L112.56 404.064C109.13 403.145 105.618 405.127 104.716 408.492L102.218 417.813C101.317 421.178 103.367 424.651 106.798 425.57Z" fill="#12436E"/>
<path fill-rule="evenodd" clip-rule="evenodd" d="M126.156 417.391C125.809 418.689 124.515 419.47 123.268 419.135C122.02 418.801 121.29 417.478 121.638 416.18C121.986 414.883 123.279 414.102 124.527 414.436C125.774 414.771 126.504 416.093 126.156 417.391Z" fill="#509EE3"/>
<path fill-rule="evenodd" clip-rule="evenodd" d="M123.5 418.27C124.213 418.461 125.042 418.022 125.274 417.155C125.507 416.287 125.008 415.493 124.295 415.302C123.582 415.111 122.753 415.549 122.52 416.417C122.288 417.284 122.787 418.079 123.5 418.27ZM123.268 419.135C124.515 419.47 125.809 418.689 126.156 417.391C126.504 416.093 125.774 414.771 124.527 414.436C123.279 414.102 121.986 414.883 121.638 416.18C121.29 417.478 122.02 418.801 123.268 419.135Z" fill="#12436E"/>
<path fill-rule="evenodd" clip-rule="evenodd" d="M135.193 419.812C134.845 421.11 133.552 421.89 132.304 421.556C131.056 421.222 130.327 419.899 130.674 418.601C131.022 417.304 132.315 416.523 133.563 416.857C134.811 417.192 135.54 418.514 135.193 419.812Z" fill="#509EE3"/>
<path fill-rule="evenodd" clip-rule="evenodd" d="M132.536 420.69C133.249 420.881 134.078 420.443 134.31 419.576C134.543 418.708 134.044 417.914 133.331 417.723C132.618 417.532 131.789 417.97 131.557 418.838C131.324 419.705 131.823 420.499 132.536 420.69ZM132.304 421.556C133.552 421.89 134.845 421.11 135.193 419.812C135.54 418.514 134.811 417.192 133.563 416.857C132.315 416.523 131.022 417.304 130.674 418.601C130.327 419.899 131.056 421.222 132.304 421.556Z" fill="#12436E"/>
<path fill-rule="evenodd" clip-rule="evenodd" d="M144.59 422.331C144.242 423.628 142.949 424.409 141.701 424.075C140.454 423.74 139.724 422.418 140.072 421.12C140.42 419.823 141.713 419.041 142.96 419.376C144.208 419.71 144.938 421.033 144.59 422.331Z" fill="#509EE3"/>
<path fill-rule="evenodd" clip-rule="evenodd" d="M141.933 423.209C142.646 423.4 143.475 422.962 143.708 422.094C143.94 421.227 143.441 420.432 142.728 420.241C142.016 420.05 141.187 420.489 140.954 421.356C140.722 422.224 141.22 423.018 141.933 423.209ZM141.701 424.075C142.949 424.409 144.242 423.628 144.59 422.331C144.938 421.033 144.208 419.71 142.96 419.376C141.713 419.041 140.42 419.823 140.072 421.12C139.724 422.418 140.454 423.74 141.701 424.075Z" fill="#12436E"/>
<path fill-rule="evenodd" clip-rule="evenodd" d="M315.75 598.358L194.25 565.802C189.275 564.469 186.324 559.35 187.659 554.368L208.684 475.902C210.019 470.92 215.134 467.963 220.109 469.296L341.609 501.851C346.586 503.185 349.537 508.304 348.203 513.286L327.178 591.752C325.843 596.734 320.727 599.691 315.75 598.358Z" fill="white"/>
<path fill-rule="evenodd" clip-rule="evenodd" d="M194.482 564.938L315.981 597.493C320.482 598.699 325.107 596.025 326.314 591.52L347.339 513.055C348.546 508.55 345.877 503.921 341.377 502.716L219.877 470.16C215.379 468.955 210.754 471.629 209.547 476.134L188.522 554.599C187.315 559.104 189.984 563.732 194.482 564.938ZM194.25 565.802L315.75 598.358C320.727 599.691 325.843 596.734 327.178 591.752L348.203 513.286C349.537 508.304 346.586 503.185 341.609 501.851L220.109 469.296C215.134 467.963 210.019 470.92 208.684 475.902L187.659 554.368C186.324 559.35 189.275 564.469 194.25 565.802Z" fill="#12436E"/>
<path fill-rule="evenodd" clip-rule="evenodd" d="M212.698 541.885L224.806 545.129L231.925 518.563L219.816 515.318L212.698 541.885Z" fill="#509EE3"/>
<path fill-rule="evenodd" clip-rule="evenodd" d="M224.806 545.129L212.698 541.885L219.816 515.318L231.925 518.563L224.806 545.129ZM230.836 519.192L220.443 516.408L213.786 541.255L224.178 544.04L230.836 519.192Z" fill="#12436E"/>
<path fill-rule="evenodd" clip-rule="evenodd" d="M212.601 542.248L224.709 545.492L229.891 526.155L217.782 522.91L212.601 542.248Z" fill="#C2DAF0"/>
<path fill-rule="evenodd" clip-rule="evenodd" d="M224.709 545.492L212.601 542.248L217.782 522.91L229.891 526.155L224.709 545.492ZM228.801 526.789L218.408 524.004L213.69 541.613L224.082 544.398L228.801 526.789Z" fill="#12436E"/>
<path fill-rule="evenodd" clip-rule="evenodd" d="M212.649 542.066L224.758 545.311L226.162 540.07L214.054 536.825L212.649 542.066Z" fill="#8FC1ED"/>
<path fill-rule="evenodd" clip-rule="evenodd" d="M224.758 545.311L212.649 542.066L214.054 536.825L226.162 540.07L224.758 545.311ZM225.074 540.695L214.682 537.91L213.736 541.441L224.128 544.225L225.074 540.695Z" fill="#12436E"/>
<path fill-rule="evenodd" clip-rule="evenodd" d="M233.023 547.718L245.131 550.963L259.756 496.384L247.647 493.14L233.023 547.718Z" fill="#509EE3"/>
<path fill-rule="evenodd" clip-rule="evenodd" d="M245.131 550.963L233.023 547.718L247.647 493.14L259.756 496.384L245.131 550.963ZM258.666 497.018L248.274 494.234L234.113 547.084L244.504 549.868L258.666 497.018Z" fill="#12436E"/>
<path fill-rule="evenodd" clip-rule="evenodd" d="M233.023 547.718L245.131 550.963L253.315 520.42L241.207 517.176L233.023 547.718Z" fill="#C2DAF0"/>
<path fill-rule="evenodd" clip-rule="evenodd" d="M245.131 550.963L233.023 547.718L241.207 517.176L253.315 520.42L245.131 550.963ZM252.226 521.052L241.834 518.268L234.112 547.086L244.504 549.871L252.226 521.052Z" fill="#12436E"/>
<path fill-rule="evenodd" clip-rule="evenodd" d="M233.071 547.538L245.18 550.782L246.584 545.541L234.475 542.297L233.071 547.538Z" fill="#8FC1ED"/>
<path fill-rule="evenodd" clip-rule="evenodd" d="M245.18 550.782L233.071 547.538L234.475 542.297L246.584 545.541L245.18 550.782ZM245.496 546.167L235.105 543.382L234.159 546.913L244.55 549.697L245.496 546.167Z" fill="#12436E"/>
<path fill-rule="evenodd" clip-rule="evenodd" d="M253.264 553.143L265.373 556.387L269.392 541.387L257.283 538.143L253.264 553.143Z" fill="#509EE3"/>
<path fill-rule="evenodd" clip-rule="evenodd" d="M265.373 556.387L253.264 553.143L257.283 538.143L269.392 541.387L265.373 556.387ZM268.301 542.023L257.91 539.239L254.354 552.507L264.746 555.291L268.301 542.023Z" fill="#12436E"/>
<path fill-rule="evenodd" clip-rule="evenodd" d="M253.313 552.961L265.421 556.205L267.455 548.615L255.347 545.37L253.313 552.961Z" fill="#C2DAF0"/>
<path fill-rule="evenodd" clip-rule="evenodd" d="M265.421 556.205L253.313 552.961L255.347 545.37L267.455 548.615L265.421 556.205ZM266.365 549.248L255.974 546.463L254.403 552.327L264.794 555.112L266.365 549.248Z" fill="#12436E"/>
<path fill-rule="evenodd" clip-rule="evenodd" d="M253.361 552.781L265.47 556.025L266.051 553.857L253.942 550.612L253.361 552.781Z" fill="#8FC1ED"/>
<path fill-rule="evenodd" clip-rule="evenodd" d="M265.47 556.025L253.361 552.781L253.942 550.612L266.051 553.857L265.47 556.025ZM264.974 554.441L254.583 551.656L254.438 552.197L264.829 554.982L264.974 554.441Z" fill="#12436E"/>
<path fill-rule="evenodd" clip-rule="evenodd" d="M273.686 558.613L285.794 561.857L301.339 503.845L289.23 500.601L273.686 558.613Z" fill="#509EE3"/>
<path fill-rule="evenodd" clip-rule="evenodd" d="M285.794 561.857L273.686 558.613L289.23 500.601L301.339 503.845L285.794 561.857ZM300.249 504.479L289.857 501.695L274.776 557.979L285.167 560.763L300.249 504.479Z" fill="#12436E"/>
<path fill-rule="evenodd" clip-rule="evenodd" d="M273.734 558.433L285.843 561.677L299.402 511.075L287.293 507.83L273.734 558.433Z" fill="#C2DAF0"/>
<path fill-rule="evenodd" clip-rule="evenodd" d="M285.843 561.677L273.734 558.433L287.293 507.83L299.402 511.075L285.843 561.677ZM298.312 511.708L287.921 508.923L274.824 557.799L285.216 560.584L298.312 511.708Z" fill="#12436E"/>
<path fill-rule="evenodd" clip-rule="evenodd" d="M273.686 558.615L285.794 561.859L293.929 531.497L281.821 528.253L273.686 558.615Z" fill="#8FC1ED"/>
<path fill-rule="evenodd" clip-rule="evenodd" d="M285.794 561.859L273.686 558.615L281.821 528.253L293.929 531.497L285.794 561.859ZM292.84 532.131L282.448 529.346L274.775 557.981L285.167 560.766L292.84 532.131Z" fill="#12436E"/>
<path fill-rule="evenodd" clip-rule="evenodd" d="M300.252 565.732L312.361 568.977L324.225 524.7L312.116 521.455L300.252 565.732Z" fill="#509EE3"/>
<path fill-rule="evenodd" clip-rule="evenodd" d="M312.361 568.977L300.252 565.732L312.116 521.455L324.225 524.7L312.361 568.977ZM323.134 525.335L312.743 522.551L301.342 565.097L311.734 567.881L323.134 525.335Z" fill="#12436E"/>
<path fill-rule="evenodd" clip-rule="evenodd" d="M300.3 565.552L312.409 568.796L318.753 545.121L306.644 541.877L300.3 565.552Z" fill="#C2DAF0"/>
<path fill-rule="evenodd" clip-rule="evenodd" d="M312.409 568.796L300.3 565.552L306.644 541.877L318.753 545.121L312.409 568.796ZM317.663 545.754L307.271 542.97L301.39 564.919L311.782 567.704L317.663 545.754Z" fill="#12436E"/>
<path fill-rule="evenodd" clip-rule="evenodd" d="M300.252 565.732L312.361 568.976L317.494 549.82L305.385 546.575L300.252 565.732Z" fill="#8FC1ED"/>
<path fill-rule="evenodd" clip-rule="evenodd" d="M312.361 568.976L300.252 565.732L305.385 546.575L317.494 549.82L312.361 568.976ZM316.403 550.456L306.011 547.671L301.343 565.096L311.734 567.88L316.403 550.456Z" fill="#12436E"/>
<path fill-rule="evenodd" clip-rule="evenodd" d="M245.156 565.69C245.705 565.837 246.031 566.401 245.884 566.95C245.737 567.5 245.173 567.825 244.623 567.678C244.074 567.531 243.749 566.967 243.896 566.418C244.043 565.869 244.607 565.543 245.156 565.69Z" fill="#12436E"/>
<path fill-rule="evenodd" clip-rule="evenodd" d="M245.04 566.724C245.062 566.642 245.013 566.557 244.93 566.535C244.847 566.513 244.762 566.562 244.74 566.644C244.718 566.726 244.767 566.811 244.85 566.833C244.933 566.856 245.018 566.807 245.04 566.724ZM245.884 566.95C246.031 566.401 245.705 565.837 245.156 565.69C244.607 565.543 244.043 565.869 243.896 566.418C243.749 566.967 244.074 567.531 244.623 567.678C245.173 567.825 245.737 567.5 245.884 566.95Z" fill="#12436E"/>
<path fill-rule="evenodd" clip-rule="evenodd" d="M209.915 556.248C210.464 556.395 210.789 556.959 210.642 557.508C210.495 558.057 209.931 558.383 209.382 558.236C208.833 558.089 208.507 557.524 208.654 556.976C208.801 556.427 209.365 556.101 209.915 556.248Z" fill="#509EE3"/>
<path fill-rule="evenodd" clip-rule="evenodd" d="M209.797 557.282C209.82 557.199 209.771 557.115 209.688 557.092C209.606 557.07 209.521 557.119 209.499 557.202C209.477 557.284 209.526 557.369 209.608 557.391C209.691 557.413 209.775 557.364 209.797 557.282ZM210.642 557.508C210.789 556.959 210.464 556.395 209.915 556.248C209.365 556.101 208.801 556.427 208.654 556.976C208.507 557.524 208.833 558.089 209.382 558.236C209.931 558.383 210.495 558.057 210.642 557.508Z" fill="#12436E"/>
<path fill-rule="evenodd" clip-rule="evenodd" d="M212.545 559.083L236.219 565.426L236.752 563.438L213.077 557.095L212.545 559.083Z" fill="#12436E"/>
<path fill-rule="evenodd" clip-rule="evenodd" d="M236.219 565.426L212.545 559.083L213.077 557.095L236.752 563.438L236.219 565.426ZM235.655 564.072L213.711 558.192L213.642 558.449L235.586 564.329L235.655 564.072Z" fill="#12436E"/>
<path fill-rule="evenodd" clip-rule="evenodd" d="M247.425 568.429L271.099 574.773L271.632 572.785L247.957 566.441L247.425 568.429Z" fill="#12436E"/>
<path fill-rule="evenodd" clip-rule="evenodd" d="M271.099 574.773L247.425 568.429L247.957 566.441L271.632 572.785L271.099 574.773ZM270.535 573.418L248.591 567.538L248.522 567.796L270.466 573.676L270.535 573.418Z" fill="#12436E"/>
<path fill-rule="evenodd" clip-rule="evenodd" d="M281.845 575.521C282.394 575.668 282.718 576.232 282.571 576.781C282.424 577.329 281.862 577.656 281.312 577.509C280.763 577.361 280.436 576.797 280.583 576.248C280.73 575.699 281.295 575.374 281.845 575.521Z" fill="#509EE3"/>
<path fill-rule="evenodd" clip-rule="evenodd" d="M281.725 576.554C281.747 576.471 281.7 576.387 281.618 576.365C281.535 576.343 281.451 576.392 281.428 576.475C281.406 576.557 281.455 576.642 281.538 576.664C281.62 576.686 281.703 576.636 281.725 576.554ZM282.571 576.781C282.718 576.232 282.394 575.668 281.845 575.521C281.295 575.374 280.73 575.699 280.583 576.248C280.436 576.797 280.763 577.361 281.312 577.509C281.862 577.656 282.424 577.329 282.571 576.781Z" fill="#12436E"/>
<path fill-rule="evenodd" clip-rule="evenodd" d="M284.424 578.538L308.099 584.881L308.632 582.893L284.957 576.55L284.424 578.538Z" fill="#12436E"/>
<path fill-rule="evenodd" clip-rule="evenodd" d="M308.099 584.881L284.424 578.538L284.957 576.55L308.632 582.893L308.099 584.881ZM307.534 583.527L285.591 577.647L285.522 577.905L307.465 583.784L307.534 583.527Z" fill="#12436E"/>
<path fill-rule="evenodd" clip-rule="evenodd" d="M65.8917 551.94L70.9519 553.296L72.3078 548.236L67.2476 546.88L65.8917 551.94Z" fill="#509EE3"/>
<path fill-rule="evenodd" clip-rule="evenodd" d="M70.9519 553.296L65.8917 551.94L67.2476 546.88L72.3078 548.236L70.9519 553.296ZM71.201 548.875L67.8866 547.987L66.9984 551.301L70.3129 552.189L71.201 548.875Z" fill="#12436E"/>
<path fill-rule="evenodd" clip-rule="evenodd" d="M73.0492 552.698L96.724 559.042L97.2567 557.054L73.5818 550.71L73.0492 552.698Z" fill="#12436E"/>
<path fill-rule="evenodd" clip-rule="evenodd" d="M96.724 559.042L73.0492 552.698L73.5818 550.71L97.2567 557.054L96.724 559.042ZM96.1592 557.687L74.2154 551.808L74.1466 552.064L96.0905 557.944L96.1592 557.687Z" fill="#12436E"/>
<path fill-rule="evenodd" clip-rule="evenodd" d="M75.6645 542.937L99.3393 549.281L99.872 547.293L76.1971 540.949L75.6645 542.937Z" fill="#12436E"/>
<path fill-rule="evenodd" clip-rule="evenodd" d="M99.3393 549.281L75.6645 542.937L76.1971 540.949L99.872 547.293L99.3393 549.281ZM98.7747 547.926L76.8308 542.046L76.7618 542.304L98.7056 548.184L98.7747 547.926Z" fill="#12436E"/>
<path fill-rule="evenodd" clip-rule="evenodd" d="M78.7503 532.143L102.425 538.487L102.958 536.499L79.283 530.155L78.7503 532.143Z" fill="#12436E"/>
<path fill-rule="evenodd" clip-rule="evenodd" d="M102.425 538.487L78.7503 532.143L79.283 530.155L102.958 536.499L102.425 538.487ZM101.861 537.132L79.9167 531.252L79.8476 531.51L101.791 537.39L101.861 537.132Z" fill="#12436E"/>
<path fill-rule="evenodd" clip-rule="evenodd" d="M71.3635 531.519L76.0623 532.778L77.4182 527.718L72.7194 526.459L71.3635 531.519Z" fill="#509EE3"/>
<path fill-rule="evenodd" clip-rule="evenodd" d="M76.0623 532.778L71.3635 531.519L72.7194 526.459L77.4182 527.718L76.0623 532.778ZM76.3114 528.357L73.3584 527.566L72.4703 530.88L75.4233 531.672L76.3114 528.357Z" fill="#12436E"/>
<path fill-rule="evenodd" clip-rule="evenodd" d="M68.5066 542.181L73.2054 543.44L74.5613 538.38L69.8625 537.121L68.5066 542.181Z" fill="#12436E"/>
<path fill-rule="evenodd" clip-rule="evenodd" d="M73.2054 543.44L68.5066 542.181L69.8625 537.121L74.5613 538.38L73.2054 543.44ZM73.4545 539.019L70.5015 538.228L69.6134 541.542L72.5664 542.334L73.4545 539.019Z" fill="#12436E"/>
<path fill-rule="evenodd" clip-rule="evenodd" d="M84.218 475.593C90.2217 453.187 113.253 439.89 135.66 445.893L135.828 445.938C158.21 452.034 171.413 475.119 165.318 497.5C162.705 507.096 156.772 515.453 148.576 521.084L148.623 521.36L148.477 521.151C129.322 534.234 103.187 529.311 90.1037 510.156C83.1972 500.044 81.0477 487.421 84.218 475.593Z" fill="#8FC1ED"/>
<path fill-rule="evenodd" clip-rule="evenodd" d="M85.0813 475.824C81.9784 487.401 84.0823 499.755 90.8416 509.651C103.646 528.4 129.225 533.218 147.973 520.413L148.101 520.326C156.107 514.815 161.902 506.645 164.456 497.266C170.421 475.361 157.499 452.767 135.595 446.801L135.429 446.757C113.498 440.881 90.9573 453.895 85.0813 475.824ZM135.828 445.938C158.209 452.034 171.413 475.119 165.318 497.5C162.773 506.847 157.078 515.018 149.21 520.64C149 520.79 148.788 520.938 148.575 521.084L148.622 521.359L148.477 521.151C148.323 521.257 148.169 521.36 148.014 521.463C128.902 534.154 103.082 529.158 90.1037 510.155C83.1972 500.043 81.0477 487.421 84.218 475.593C90.2217 453.187 113.253 439.89 135.66 445.893L135.828 445.938Z" fill="#12436E"/>
<path fill-rule="evenodd" clip-rule="evenodd" d="M124.895 486.673L94.909 456.658C105.53 445.856 121.127 441.604 135.74 445.527L135.908 445.572C158.235 451.653 171.437 474.669 165.438 497.057C163.334 504.96 158.966 512.075 152.873 517.525L124.895 486.673Z" fill="#509EE3"/>
<path fill-rule="evenodd" clip-rule="evenodd" d="M125.541 486.056L152.933 516.26C158.554 511.009 162.592 504.275 164.575 496.827L164.575 496.825C170.447 474.914 157.526 452.388 135.675 446.435L135.508 446.39C121.491 442.628 106.549 446.55 96.1736 456.659L125.541 486.056ZM94.909 456.658C95.0592 456.505 95.2101 456.354 95.3621 456.204C95.4221 456.145 95.4822 456.086 95.5423 456.027C106.144 445.692 121.414 441.682 135.74 445.527L135.908 445.572C158.235 451.653 171.436 474.669 165.438 497.056C163.41 504.671 159.282 511.555 153.533 516.922C153.484 516.967 153.435 517.013 153.386 517.058C153.216 517.215 153.046 517.37 152.873 517.525L124.895 486.673L94.909 456.658Z" fill="#12436E"/>
<path fill-rule="evenodd" clip-rule="evenodd" d="M130.002 466.653C140.582 469.487 146.839 480.443 143.978 491.123C141.116 501.803 130.219 508.162 119.639 505.327C109.059 502.493 102.802 491.537 105.664 480.857C108.526 470.177 119.422 463.818 130.002 466.653Z" fill="white"/>
<path fill-rule="evenodd" clip-rule="evenodd" d="M143.113 490.891C145.848 480.682 139.865 470.222 129.77 467.517C119.676 464.812 109.265 470.879 106.529 481.089C103.793 491.299 109.776 501.758 119.871 504.463C129.966 507.168 140.377 501.101 143.113 490.891ZM143.978 491.123C146.839 480.443 140.582 469.487 130.002 466.653C119.422 463.818 108.526 470.177 105.664 480.857C102.802 491.537 109.059 502.493 119.639 505.327C130.219 508.162 141.116 501.803 143.978 491.123Z" fill="#12436E"/>
<path fill-rule="evenodd" clip-rule="evenodd" d="M86.5722 431.384L51.6095 561.867C50.3524 566.559 53.1276 571.378 57.8084 572.632L156.908 599.186C161.589 600.44 166.402 597.654 167.659 592.963L181.85 540.003C182.326 538.225 183.347 536.641 184.769 535.474L190.293 530.941C193.209 528.549 194.277 524.561 192.948 521.031L190.431 514.344C189.783 512.623 189.691 510.74 190.167 508.962L202.622 462.48C203.879 457.789 201.104 452.969 196.423 451.715L97.323 425.161C92.6423 423.907 87.8292 426.693 86.5722 431.384Z" fill="white"/>
<path fill-rule="evenodd" clip-rule="evenodd" d="M87.4346 431.616L52.4719 562.098C51.3426 566.313 53.8355 570.642 58.0398 571.768L157.14 598.322C161.344 599.448 165.667 596.946 166.797 592.732L180.987 539.772C181.512 537.813 182.637 536.068 184.204 534.782L189.728 530.25L190.293 530.941L184.769 535.474C183.347 536.641 182.326 538.225 181.85 540.003L167.659 592.963C166.402 597.654 161.589 600.44 156.908 599.186L57.8084 572.632C53.1276 571.378 50.3524 566.559 51.6095 561.867L86.5722 431.384C87.8292 426.693 92.6423 423.907 97.323 425.161L196.423 451.715C201.104 452.969 203.879 457.789 202.622 462.48L190.167 508.962C189.691 510.74 189.783 512.623 190.431 514.344L192.948 521.031L192.113 521.347L189.595 514.66C188.882 512.764 188.78 510.69 189.305 508.731L201.759 462.249C202.889 458.035 200.396 453.706 196.191 452.579L97.0914 426.026C92.8871 424.899 88.5637 427.402 87.4346 431.616ZM192.948 521.031L192.113 521.347C193.307 524.518 192.347 528.101 189.728 530.25L190.293 530.941C193.209 528.549 194.277 524.561 192.948 521.031Z" fill="#12436E"/>
<path fill-rule="evenodd" clip-rule="evenodd" d="M70.7863 560.42L75.8465 561.776L77.2024 556.715L72.1422 555.359L70.7863 560.42Z" fill="#509EE3"/>
<path fill-rule="evenodd" clip-rule="evenodd" d="M75.8465 561.776L70.7863 560.42L72.1422 555.359L77.2024 556.715L75.8465 561.776ZM76.0956 557.354L72.7812 556.466L71.893 559.781L75.2075 560.669L76.0956 557.354Z" fill="#12436E"/>
<path fill-rule="evenodd" clip-rule="evenodd" d="M77.7157 561.307L101.39 567.651L101.923 565.663L78.2484 559.319L77.7157 561.307Z" fill="#12436E"/>
<path fill-rule="evenodd" clip-rule="evenodd" d="M101.39 567.651L77.7157 561.307L78.2484 559.319L101.923 565.663L101.39 567.651ZM100.826 566.297L78.8819 560.417L78.8131 560.674L100.757 566.553L100.826 566.297Z" fill="#12436E"/>
<path fill-rule="evenodd" clip-rule="evenodd" d="M80.3307 551.548L104.005 557.891L104.538 555.903L80.8633 549.56L80.3307 551.548Z" fill="#12436E"/>
<path fill-rule="evenodd" clip-rule="evenodd" d="M104.005 557.891L80.3307 551.548L80.8633 549.56L104.538 555.903L104.005 557.891ZM103.441 556.537L81.4969 550.657L81.4281 550.914L103.372 556.794L103.441 556.537Z" fill="#12436E"/>
<path fill-rule="evenodd" clip-rule="evenodd" d="M83.1875 540.886L106.862 547.23L107.395 545.242L83.7202 538.898L83.1875 540.886Z" fill="#12436E"/>
<path fill-rule="evenodd" clip-rule="evenodd" d="M106.862 547.23L83.1875 540.886L83.7202 538.898L107.395 545.242L106.862 547.23ZM106.298 545.875L84.3538 539.995L84.2848 540.253L106.229 546.133L106.298 545.875Z" fill="#12436E"/>
<path fill-rule="evenodd" clip-rule="evenodd" d="M76.2587 539.997L80.9575 541.256L82.3134 536.196L77.6146 534.937L76.2587 539.997Z" fill="#509EE3"/>
<path fill-rule="evenodd" clip-rule="evenodd" d="M80.9575 541.256L76.2587 539.997L77.6146 534.937L82.3134 536.196L80.9575 541.256ZM81.2067 536.835L78.2536 536.043L77.3655 539.358L80.3185 540.149L81.2067 536.835Z" fill="#12436E"/>
<path fill-rule="evenodd" clip-rule="evenodd" d="M73.4009 550.662L78.0998 551.921L79.4557 546.861L74.7568 545.602L73.4009 550.662Z" fill="#12436E"/>
<path fill-rule="evenodd" clip-rule="evenodd" d="M78.0998 551.921L73.4009 550.662L74.7568 545.602L79.4557 546.861L78.0998 551.921ZM78.3489 547.5L75.3958 546.708L74.5077 550.023L77.4608 550.814L78.3489 547.5Z" fill="#12436E"/>
<path fill-rule="evenodd" clip-rule="evenodd" d="M88.7519 483.973C94.7556 461.567 117.787 448.269 140.194 454.273L140.362 454.318C162.743 460.414 175.947 483.499 169.852 505.88C167.239 515.476 161.306 523.833 153.11 529.464L153.156 529.739L153.011 529.531C133.855 542.614 107.721 537.691 94.6376 518.536C87.7311 508.423 85.5816 495.801 88.7519 483.973Z" fill="#8FC1ED"/>
<path fill-rule="evenodd" clip-rule="evenodd" d="M89.6152 484.204C86.5123 495.781 88.6162 508.135 95.3754 518.031C108.18 536.779 133.758 541.598 152.506 528.793L152.634 528.706C160.641 523.195 166.435 515.025 168.99 505.646C174.955 483.741 162.033 461.147 140.129 455.181L139.962 455.137C118.032 449.26 95.4912 462.275 89.6152 484.204ZM140.362 454.318C162.743 460.413 175.947 483.498 169.852 505.88C167.307 515.226 161.612 523.398 153.744 529.02C153.534 529.169 153.322 529.318 153.109 529.464L153.156 529.74L153.01 529.531C153.01 529.531 153.01 529.531 153.01 529.531C152.857 529.636 152.702 529.74 152.548 529.843C133.436 542.534 107.615 537.537 94.6376 518.536C87.7311 508.423 85.5816 495.801 88.7519 483.973C94.7556 461.567 117.787 448.269 140.194 454.273L140.362 454.318Z" fill="#12436E"/>
<path fill-rule="evenodd" clip-rule="evenodd" d="M129.428 495.054L99.4427 465.039C110.063 454.237 125.66 449.985 140.274 453.907L140.441 453.952C162.769 460.034 175.97 483.05 169.972 505.437C167.867 513.341 163.5 520.456 157.407 525.906L129.428 495.054Z" fill="#509EE3"/>
<path fill-rule="evenodd" clip-rule="evenodd" d="M130.075 494.437L157.467 524.641C163.088 519.39 167.126 512.656 169.109 505.208L169.109 505.206C174.98 483.295 162.06 460.769 140.208 454.816L140.042 454.771C126.025 451.009 111.083 454.931 100.707 465.04L130.075 494.437ZM99.4427 465.039C99.5926 464.886 99.7437 464.735 99.8959 464.585C99.9555 464.526 100.016 464.467 100.076 464.408C110.677 454.073 125.948 450.063 140.274 453.907L140.441 453.952C162.769 460.034 175.97 483.05 169.971 505.437C167.944 513.052 163.815 519.936 158.067 525.303C158.018 525.348 157.969 525.394 157.919 525.44C157.75 525.596 157.579 525.752 157.407 525.906L129.428 495.054L99.4427 465.039Z" fill="#12436E"/>
<path fill-rule="evenodd" clip-rule="evenodd" d="M134.668 475.264C145.248 478.099 151.505 489.054 148.644 499.734C145.782 510.414 134.885 516.774 124.305 513.939C113.725 511.104 107.468 500.148 110.33 489.468C113.192 478.788 124.088 472.429 134.668 475.264Z" fill="white"/>
<path fill-rule="evenodd" clip-rule="evenodd" d="M147.779 499.502C150.514 489.293 144.531 478.834 134.436 476.129C124.342 473.424 113.93 479.49 111.195 489.7C108.459 499.91 114.442 510.369 124.537 513.074C134.632 515.779 145.043 509.712 147.779 499.502ZM148.644 499.734C151.505 489.054 145.248 478.099 134.668 475.264C124.088 472.429 113.192 478.788 110.33 489.468C107.468 500.148 113.725 511.104 124.305 513.939C134.885 516.774 145.782 510.414 148.644 499.734Z" fill="#12436E"/>
<path d="M1109.2 487.909L1120.19 555.699L1056.02 531.119L1109.2 487.909Z" fill="#1C6BB0"/>
<path fill-rule="evenodd" clip-rule="evenodd" d="M1109.56 487.115L1120.84 556.665L1055 531.446L1109.56 487.115ZM1119.53 555.064L1108.83 489.034L1057.03 531.122L1119.53 555.064Z" fill="#12436E"/>
<path d="M69.4927 196.503L133.696 220.88L80.3231 264.163L69.4927 196.503Z" fill="#C2DAF0"/>
<path fill-rule="evenodd" clip-rule="evenodd" d="M68.987 195.792L134.857 220.802L80.0985 265.209L68.987 195.792ZM132.82 221.129L70.2837 197.385L80.833 263.288L132.82 221.129Z" fill="#12436E"/>
<path fill-rule="evenodd" clip-rule="evenodd" d="M373.796 64.7545C373.796 64.7545 398.391 74.2173 405.698 88.194C413.005 102.171 428.986 138.069 398.359 183.977C367.732 229.885 327.781 229.595 318.56 227.125C309.338 224.654 288.085 212.402 288.085 212.402L373.796 64.7545Z" fill="#8FC1ED"/>
<path fill-rule="evenodd" clip-rule="evenodd" d="M373.561 64.3525L287.493 212.614L288.25 213.049C302.225 221.087 312.265 225.924 318.393 227.565C321.159 228.306 325.587 228.644 330.568 228.334C336.855 227.944 343.623 226.584 350.493 224.124C358.701 221.188 366.754 216.795 374.433 210.809C383.224 203.955 391.342 195.155 398.609 184.262C405.909 173.321 410.883 162.483 413.756 151.78C416.292 142.331 417.156 133.12 416.568 124.158C416.072 116.607 414.565 109.432 412.235 102.55C410.486 97.381 408.476 92.8842 405.969 88.0888C401.047 78.6749 390.341 70.8084 373.865 64.4695L373.561 64.3525ZM288.54 212.334L373.894 65.3014L374.078 65.3724C390.119 71.6172 400.518 79.3139 405.291 88.4434C407.781 93.2064 409.775 97.6685 411.51 102.795C413.819 109.616 415.313 116.727 415.804 124.208C416.387 133.088 415.531 142.214 413.017 151.582C410.166 162.203 405.227 172.964 397.973 183.837C390.75 194.663 382.688 203.402 373.963 210.203C366.349 216.14 358.367 220.495 350.235 223.405C343.434 225.839 336.737 227.185 330.52 227.571C325.617 227.875 321.27 227.544 318.591 226.826C312.607 225.223 302.753 220.489 289.051 212.628L288.54 212.334Z" fill="#12436E"/>
<path d="M288.084 212.403C258.291 194.502 253.966 146.992 278.424 106.287C302.882 65.5824 346.861 47.0965 376.654 64.9978C406.447 82.8992 410.772 130.409 386.314 171.114C361.856 211.819 317.877 230.304 288.084 212.403Z" fill="#8FC1ED"/>
<path fill-rule="evenodd" clip-rule="evenodd" d="M278.356 106.36C302.814 65.6548 346.793 47.1689 376.586 65.0703C406.379 82.9717 410.704 130.481 386.246 171.186C361.788 211.89 317.809 230.378 288.016 212.475C258.224 194.575 253.899 147.065 278.356 106.36ZM385.59 170.792C409.852 130.413 405.571 83.3785 376.192 65.7262C346.814 48.0738 303.275 66.3749 279.013 106.754C254.75 147.133 259.032 194.168 288.41 211.82C317.789 229.471 361.328 211.171 385.59 170.792Z" fill="#12436E"/>
<path d="M294.938 196.872C272.526 183.405 269.949 146.538 289.184 114.526C308.418 82.5148 342.18 67.4813 364.592 80.9482C387.005 94.415 389.581 131.282 370.347 163.294C351.112 195.305 317.351 210.339 294.938 196.872Z" fill="#C2DAF0"/>
<path d="M289.22 114.526C269.985 146.537 272.562 183.405 294.974 196.871C317.387 210.338 351.148 195.305 370.383 163.293C389.617 131.282 387.041 94.4142 364.628 80.9474C342.216 67.4805 308.454 82.5139 289.22 114.526Z" fill="#C2DAF0"/>
<path fill-rule="evenodd" clip-rule="evenodd" d="M277.242 162.599C276.213 147.872 280.329 130.807 289.875 114.919C299.422 99.0319 312.557 87.3861 326.044 81.3812C339.532 75.3747 353.301 75.0337 364.234 81.6032C375.168 88.1728 381.331 100.49 382.36 115.219C383.389 129.946 379.273 147.011 369.727 162.899C360.181 178.787 347.046 190.432 333.559 196.438C320.07 202.445 306.302 202.785 295.368 196.216C284.435 189.646 278.272 177.329 277.242 162.599ZM294.974 196.871C272.562 183.405 269.985 146.537 289.22 114.526C308.454 82.5139 342.216 67.4805 364.628 80.9474C387.041 94.4142 389.617 131.282 370.383 163.293C351.148 195.305 317.387 210.338 294.974 196.871Z" fill="#12436E"/>
<path d="M306.654 177.242C291.029 168.934 288.214 143.673 300.365 120.82C312.517 97.9664 335.033 86.1746 350.658 94.4822C366.282 102.79 369.097 128.051 356.946 150.904C344.795 173.758 322.278 185.549 306.654 177.242Z" fill="#8FC1ED"/>
<path fill-rule="evenodd" clip-rule="evenodd" d="M300.431 120.713C312.579 97.8575 335.091 86.0666 350.714 94.3772C366.337 102.688 369.154 127.953 357.006 150.808C344.859 173.664 322.346 185.455 306.724 177.144C291.101 168.833 288.284 143.569 300.431 120.713ZM356.33 150.449C368.302 127.924 365.538 103.129 350.355 95.0526L349.897 94.8162C334.731 87.2085 312.959 98.7727 301.107 121.072C289.134 143.597 291.9 168.392 307.083 176.468C322.266 184.546 344.359 172.974 356.33 150.449Z" fill="#12436E"/>
<path d="M316.815 155.339C308.937 150.605 307.821 137.995 314.323 127.174C320.826 116.353 332.483 111.418 340.362 116.151C348.24 120.885 349.356 133.495 342.853 144.317C336.351 155.138 324.694 160.073 316.815 155.339Z" fill="#C2DAF0"/>
<path d="M314.359 127.172C307.857 137.993 308.973 150.603 316.851 155.337C324.73 160.071 336.387 155.136 342.89 144.314C349.392 133.493 348.276 120.883 340.398 116.149C332.519 111.416 320.862 116.351 314.359 127.172Z" fill="#C2DAF0"/>
<path fill-rule="evenodd" clip-rule="evenodd" d="M310.975 143.47C310.54 138.551 311.839 132.853 315.015 127.566C318.192 122.279 322.613 118.457 327.161 116.532C331.709 114.607 336.326 114.595 340.004 116.805C343.682 119.015 345.839 123.096 346.274 128.016C346.709 132.936 345.41 138.633 342.234 143.92C339.057 149.207 334.636 153.029 330.088 154.954C325.54 156.88 320.923 156.891 317.245 154.681C313.567 152.471 311.41 148.39 310.975 143.47ZM316.851 155.337C308.973 150.603 307.857 137.993 314.359 127.172C320.862 116.351 332.519 111.416 340.398 116.149C348.276 120.883 349.392 133.493 342.89 144.314C336.387 155.136 324.73 160.071 316.851 155.337Z" fill="#12436E"/>
<path fill-rule="evenodd" clip-rule="evenodd" d="M225.539 87.7961L327.262 137.41L329.526 132.768L228.086 83.2925L216.96 61.4336C216.96 61.4336 213.334 56.23 210.181 59.6171C207.027 63.004 197.679 87.5083 197.679 87.5083C197.679 87.5083 195.013 94.8347 201.169 95.4744C205.695 95.9448 218.873 90.6403 225.539 87.7961Z" fill="#509EE3"/>
<path fill-rule="evenodd" clip-rule="evenodd" d="M197.714 87.5926C203.947 71.2569 208.113 61.9596 210.216 59.7014C212.32 57.444 214.579 58.0495 216.995 61.5179L228.121 83.3768L329.561 132.852L327.297 137.494L225.61 87.8988C213.07 93.3935 204.934 95.9469 201.205 95.5594C197.1 95.1324 195.936 92.477 197.714 87.5926ZM216.302 61.8627C214.164 58.8317 212.473 58.4014 210.777 60.2233L210.715 60.2897C208.731 62.513 204.713 71.4552 198.798 86.9019L198.429 87.8654C196.809 92.3147 197.736 94.4293 201.285 94.7984C204.828 95.1666 212.895 92.6345 225.303 87.1978L225.628 87.056L326.945 136.471L328.538 133.205L227.557 83.9526L216.337 61.9125L216.302 61.8627Z" fill="#12436E"/>
<path fill-rule="evenodd" clip-rule="evenodd" d="M843.663 499.061L843.544 491.828L848.845 494.229L960.438 382.636L1072.82 495.013L956.215 611.612L843.839 499.236L843.84 499.234L843.663 499.061Z" fill="#509EE3"/>
<path fill-rule="evenodd" clip-rule="evenodd" d="M842.895 490.989L848.48 493.519L960.15 381.849L1073.02 494.721L955.927 611.817L843.124 499.015L843.026 498.919L842.895 490.989ZM843.615 492.085L843.723 498.62L844.051 498.94L844.046 498.945L955.927 610.825L1072.03 494.721L960.15 382.841L848.633 494.358L843.615 492.085Z" fill="#12436E"/>
<path d="M957.084 378.785L844.95 490.919L957.084 603.053L1069.22 490.919L957.084 378.785Z" fill="#8FC1ED"/>
<path fill-rule="evenodd" clip-rule="evenodd" d="M844.329 491.291L956.96 378.661L1069.59 491.291L956.96 603.921L844.329 491.291ZM1068.6 491.291L956.96 379.653L845.322 491.291L956.96 602.929L1068.6 491.291Z" fill="#12436E"/>
<path d="M884.192 530.906L844.205 490.919L957.131 377.993L997.118 417.981C1024.82 445.68 1055.54 466.634 1061.84 475.283C1061.84 475.283 1062.31 484.007 1059.59 488.911C1054.53 498.06 1049.22 502.981 1048.53 503.668C1011.28 540.914 957.697 594.501 957.697 594.501C940.15 586.864 900.63 546.412 884.192 530.906Z" fill="#8FC1ED"/>
<path fill-rule="evenodd" clip-rule="evenodd" d="M997.56 418.422C1008.06 428.898 1019.05 438.579 1033.67 450.643L1033.6 450.581C1033.89 450.814 1048.49 462.785 1051.68 465.491L1052.16 465.905C1057.32 470.301 1060.41 473.269 1062 475.448L1062.06 475.531L1062.07 475.819C1062.36 481.608 1061.6 486.153 1059.78 489.453C1057.69 493.22 1055.43 496.539 1053.08 499.438C1051.5 501.382 1050.22 502.754 1048.91 504.041L1048.75 504.193L957.653 595.29L957.433 595.194C949.122 591.577 935.706 580.753 917.383 563.707C911.409 558.15 908.325 555.213 899.003 546.181L891.791 539.185C889.11 536.586 887.16 534.703 885.514 533.134L883.82 531.526L843.585 491.291L957.007 377.869L997.56 418.422ZM1036.56 453.919L1032.78 450.819C1018.22 438.79 1007.26 429.112 996.746 418.601L957.007 378.861L844.577 491.291L884.309 531.023C885.824 532.451 887.501 534.058 889.796 536.277L899.824 545.999C908.441 554.348 911.648 557.407 917.017 562.408L918.407 563.701C936.387 580.395 949.586 591.014 957.714 594.551L957.495 594.455L1048.16 503.792L1048.51 503.446C1049.71 502.265 1050.89 501.002 1052.31 499.273L1052.53 498.997C1054.86 496.13 1057.1 492.843 1059.16 489.114C1060.93 485.91 1061.67 481.43 1061.36 475.673L1061.37 475.777L1061.28 475.664C1059.66 473.516 1056.53 470.541 1051.38 466.164L1051.01 465.849C1048.53 463.755 1041.02 457.574 1036.56 453.919Z" fill="#12436E"/>
<path fill-rule="evenodd" clip-rule="evenodd" d="M1007.45 544.759C1007.45 544.759 1050.6 497.037 1052.16 478.66L1061.91 474.991C1061.91 474.991 1064.45 481.268 1059.07 490.699C1053.7 500.132 1007.45 544.759 1007.45 544.759Z" fill="#8FC1ED"/>
<path fill-rule="evenodd" clip-rule="evenodd" d="M1051.71 478.782L1061.99 474.915L1062.11 475.232C1063.85 479.531 1062.89 484.873 1059.25 491.246C1055.64 497.577 1038.44 515.598 1007.57 545.384L1007.07 544.897C1035.78 513.142 1050.66 491.147 1051.69 479.003L1051.71 478.782ZM1061.59 475.815L1052.37 479.283L1052.35 479.436C1051.14 490.859 1038.44 510.325 1014.24 537.905L1013.98 538.2L1015.76 536.463C1040.84 512.011 1055.12 496.868 1058.53 491.088L1058.65 490.897C1062.08 484.88 1063.05 479.873 1061.6 475.863L1061.59 475.815Z" fill="#12436E"/>
<path fill-rule="evenodd" clip-rule="evenodd" d="M928.133 591.809C928.133 591.809 931.138 589.288 930.136 574.877C929.135 560.466 925.896 521.413 925.896 521.413L874.408 546.168C874.408 546.168 866.554 550.164 865.478 554.402C864.402 558.64 861.097 578.837 861.097 578.837L889.964 607.018L919.581 602.235L928.133 591.809Z" fill="white"/>
<path fill-rule="evenodd" clip-rule="evenodd" d="M860.967 578.565L890.159 607.063L920.163 602.217L928.799 591.689L928.83 591.663C930.876 589.846 931.555 584.422 930.982 575.273L930.944 574.709L930.904 574.127C930.305 565.526 929.125 550.564 927.37 529.241L926.631 520.305L874.552 545.342C869.213 548.059 866.149 550.884 865.393 553.863C864.729 556.479 863.44 563.587 861.52 575.204L860.967 578.565ZM890.459 606.114L861.918 578.251L862.012 577.683C864.097 564.971 865.498 557.155 866.211 554.256L866.254 554.083C866.919 551.464 869.708 548.852 874.642 546.295L874.946 546.137L925.851 521.665L926.173 525.543C927.979 547.404 929.219 563.016 929.889 572.381L930.038 574.48C930.696 583.929 930.038 589.493 928.192 591.039L928.161 591.065L919.69 601.394L890.459 606.114Z" fill="#12436E"/>
<path fill-rule="evenodd" clip-rule="evenodd" d="M865.477 554.181L799.684 667.66C799.684 667.66 796.311 679.187 806.006 689.484C815.701 699.781 833.329 713.016 851.856 710.4C851.856 710.4 861.033 708.544 865.477 700.006C869.921 691.468 928.131 591.588 928.131 591.588C928.131 591.588 908.571 601.792 885.219 586.332C861.866 570.873 865.477 554.181 865.477 554.181Z" fill="#8FC1ED"/>
<path fill-rule="evenodd" clip-rule="evenodd" d="M866.854 551.311L799.62 667.276L799.537 667.563C797.353 675.32 799.529 682.676 806.03 689.581C811.696 695.599 818.557 701.095 825.756 704.968C834.65 709.753 843.611 711.854 852.265 710.633L852.291 710.628C858.541 709.364 863.194 705.814 866.218 700.004L866.312 699.824C869.462 693.847 888.797 660.374 924.294 599.445L929.638 590.275L928.275 590.985C915.387 597.708 901.253 595.978 885.811 585.755C870.379 575.539 863.897 564.982 866.258 554.067L866.854 551.311ZM826.177 704.186C819.068 700.361 812.281 694.924 806.677 688.972C800.317 682.216 798.256 675.102 800.457 667.577L800.443 667.628L865.008 556.266L864.976 556.593C864.073 566.846 870.726 576.714 884.852 586.183L885.321 586.496C900.388 596.47 914.33 598.502 927.095 592.558L927.348 592.438L924.696 596.99C888.435 659.225 868.719 693.352 865.524 699.413L865.343 699.76C862.44 705.235 858.04 708.559 852.115 709.758L852.127 709.755L851.887 709.788C843.602 710.893 835.004 708.882 826.439 704.326L826.177 704.186Z" fill="#12436E"/>
<path fill-rule="evenodd" clip-rule="evenodd" d="M914.479 526.187L914.628 526.569C915.741 529.412 917.46 531.413 919.781 532.548C922.073 533.672 924.568 534.081 927.255 533.781L927.682 533.732L926.633 520.301L914.479 526.187ZM915.623 526.655L915.609 526.624L925.849 521.667L926.729 532.939L926.675 532.944C924.392 533.123 922.273 532.748 920.309 531.817L920.172 531.751C918.173 530.771 916.658 529.081 915.623 526.655Z" fill="#12436E"/>
<path fill-rule="evenodd" clip-rule="evenodd" d="M922.171 527.186L874.883 549.471C874.883 549.471 870.983 552.754 862.491 568.176C853.998 583.6 805.402 668.295 805.402 668.295C805.402 668.295 804.15 674.714 807.718 678.31L873.473 563.232C873.473 563.232 878.707 554.265 884.974 551.868C891.242 549.471 926.829 532.537 926.829 532.537L922.171 527.186Z" fill="white"/>
<path fill-rule="evenodd" clip-rule="evenodd" d="M927.875 546.331L925.849 521.667L908.272 529.905C908.272 529.905 907.334 535.094 913.609 540.689C919.881 546.282 927.875 546.331 927.875 546.331Z" fill="#8FC1ED"/>
<path fill-rule="evenodd" clip-rule="evenodd" d="M544.825 284.809C550.251 284.809 554.65 280.381 554.65 274.919C554.65 269.457 550.251 265.029 544.825 265.029C539.399 265.029 535 269.457 535 274.919C535 280.381 539.399 284.809 544.825 284.809Z" fill="#509EE3" stroke="#12436E"/>
<path fill-rule="evenodd" clip-rule="evenodd" d="M544.825 312.502C550.251 312.502 554.65 308.074 554.65 302.612C554.65 297.15 550.251 292.722 544.825 292.722C539.399 292.722 535 297.15 535 302.612C535 308.074 539.399 312.502 544.825 312.502Z" fill="#509EE3" stroke="#12436E"/>
<path fill-rule="evenodd" clip-rule="evenodd" d="M572.335 312.766C577.761 312.766 582.16 308.338 582.16 302.876C582.16 297.414 577.761 292.986 572.335 292.986C566.909 292.986 562.51 297.414 562.51 302.876C562.51 308.338 566.909 312.766 572.335 312.766Z" fill="#509EE3" stroke="#12436E"/>
<path fill-rule="evenodd" clip-rule="evenodd" d="M654.863 284.809C660.289 284.809 664.688 280.381 664.688 274.919C664.688 269.457 660.289 265.029 654.863 265.029C649.437 265.029 645.038 269.457 645.038 274.919C645.038 280.381 649.437 284.809 654.863 284.809Z" fill="#509EE3" stroke="#12436E"/>
<path fill-rule="evenodd" clip-rule="evenodd" d="M627.353 312.766C632.779 312.766 637.178 308.338 637.178 302.876C637.178 297.414 632.779 292.986 627.353 292.986C621.927 292.986 617.528 297.414 617.528 302.876C617.528 308.338 621.927 312.766 627.353 312.766Z" fill="#509EE3" stroke="#12436E"/>
<path fill-rule="evenodd" clip-rule="evenodd" d="M654.863 312.766C660.289 312.766 664.688 308.338 664.688 302.876C664.688 297.414 660.289 292.986 654.863 292.986C649.437 292.986 645.038 297.414 645.038 302.876C645.038 308.338 649.437 312.766 654.863 312.766Z" fill="#509EE3" stroke="#12436E"/>
<path fill-rule="evenodd" clip-rule="evenodd" d="M544.825 340.194C550.251 340.194 554.65 335.766 554.65 330.304C554.65 324.842 550.251 320.414 544.825 320.414C539.399 320.414 535 324.842 535 330.304C535 335.766 539.399 340.194 544.825 340.194Z" fill="#509EE3" stroke="#12436E"/>
<path fill-rule="evenodd" clip-rule="evenodd" d="M599.844 340.459C605.27 340.459 609.669 336.031 609.669 330.569C609.669 325.107 605.27 320.679 599.844 320.679C594.418 320.679 590.019 325.107 590.019 330.569C590.019 336.031 594.418 340.459 599.844 340.459Z" fill="#509EE3" stroke="#12436E"/>
<path fill-rule="evenodd" clip-rule="evenodd" d="M654.863 340.459C660.289 340.459 664.688 336.031 664.688 330.569C664.688 325.107 660.289 320.679 654.863 320.679C649.437 320.679 645.038 325.107 645.038 330.569C645.038 336.031 649.437 340.459 654.863 340.459Z" fill="#509EE3" stroke="#12436E"/>
<path fill-rule="evenodd" clip-rule="evenodd" d="M544.825 367.886C550.251 367.886 554.65 363.459 554.65 357.996C554.65 352.534 550.251 348.106 544.825 348.106C539.399 348.106 535 352.534 535 357.996C535 363.459 539.399 367.886 544.825 367.886Z" fill="#509EE3" stroke="#12436E"/>
<path fill-rule="evenodd" clip-rule="evenodd" d="M654.863 368.152C660.289 368.152 664.688 363.724 664.688 358.262C664.688 352.8 660.289 348.372 654.863 348.372C649.437 348.372 645.038 352.8 645.038 358.262C645.038 363.724 649.437 368.152 654.863 368.152Z" fill="#509EE3" stroke="#12436E"/>
<path fill-rule="evenodd" clip-rule="evenodd" d="M572.993 284.188C578.444 284.188 582.862 279.781 582.862 274.344C582.862 268.907 578.444 264.499 572.993 264.499C567.543 264.499 563.125 268.907 563.125 274.344C563.125 279.781 567.543 284.188 572.993 284.188Z" fill="#C2DAF0" stroke="#12436E"/>
<path fill-rule="evenodd" clip-rule="evenodd" d="M600.626 284.188C606.076 284.188 610.494 279.781 610.494 274.344C610.494 268.907 606.076 264.499 600.626 264.499C595.175 264.499 590.757 268.907 590.757 274.344C590.757 279.781 595.175 284.188 600.626 284.188Z" fill="#C2DAF0" stroke="#12436E"/>
<path fill-rule="evenodd" clip-rule="evenodd" d="M600.626 252.689C606.076 252.689 610.494 248.282 610.494 242.845C610.494 237.408 606.076 233 600.626 233C595.175 233 590.757 237.408 590.757 242.845C590.757 248.282 595.175 252.689 600.626 252.689Z" fill="#C2DAF0" stroke="#12436E"/>
<path fill-rule="evenodd" clip-rule="evenodd" d="M600.626 312.025C606.076 312.025 610.494 307.618 610.494 302.181C610.494 296.744 606.076 292.336 600.626 292.336C595.175 292.336 590.757 296.744 590.757 302.181C590.757 307.618 595.175 312.025 600.626 312.025Z" fill="#C2DAF0" stroke="#12436E"/>
<path fill-rule="evenodd" clip-rule="evenodd" d="M628.257 284.188C633.707 284.188 638.125 279.781 638.125 274.344C638.125 268.907 633.707 264.499 628.257 264.499C622.806 264.499 618.388 268.907 618.388 274.344C618.388 279.781 622.806 284.188 628.257 284.188Z" fill="#C2DAF0" stroke="#12436E"/>
<path fill-rule="evenodd" clip-rule="evenodd" d="M572.993 339.589C578.444 339.589 582.862 335.181 582.862 329.744C582.862 324.307 578.444 319.899 572.993 319.899C567.543 319.899 563.125 324.307 563.125 329.744C563.125 335.181 567.543 339.589 572.993 339.589Z" fill="#C2DAF0" stroke="#12436E"/>
<path fill-rule="evenodd" clip-rule="evenodd" d="M628.257 339.589C633.707 339.589 638.125 335.181 638.125 329.744C638.125 324.307 633.707 319.899 628.257 319.899C622.806 319.899 618.388 324.307 618.388 329.744C618.388 335.181 622.806 339.589 628.257 339.589Z" fill="#C2DAF0" stroke="#12436E"/>
<path fill-rule="evenodd" clip-rule="evenodd" d="M572.993 367.153C578.444 367.153 582.862 362.745 582.862 357.308C582.862 351.871 578.444 347.464 572.993 347.464C567.543 347.464 563.125 351.871 563.125 357.308C563.125 362.745 567.543 367.153 572.993 367.153Z" fill="#C2DAF0" stroke="#12436E"/>
<path fill-rule="evenodd" clip-rule="evenodd" d="M600.626 367.153C606.076 367.153 610.494 362.745 610.494 357.308C610.494 351.871 606.076 347.464 600.626 347.464C595.175 347.464 590.757 351.871 590.757 357.308C590.757 362.745 595.175 367.153 600.626 367.153Z" fill="#C2DAF0" stroke="#12436E"/>
<path fill-rule="evenodd" clip-rule="evenodd" d="M600.626 394.716C606.076 394.716 610.494 390.309 610.494 384.872C610.494 379.435 606.076 375.027 600.626 375.027C595.175 375.027 590.757 379.435 590.757 384.872C590.757 390.309 595.175 394.716 600.626 394.716Z" fill="#C2DAF0" stroke="#12436E"/>
<path fill-rule="evenodd" clip-rule="evenodd" d="M628.257 367.153C633.707 367.153 638.125 362.745 638.125 357.308C638.125 351.871 633.707 347.464 628.257 347.464C622.806 347.464 618.388 351.871 618.388 357.308C618.388 362.745 622.806 367.153 628.257 367.153Z" fill="#C2DAF0" stroke="#12436E"/>
<g style="mix-blend-mode:soft-light">
<rect width="1920" height="960"/>
</g>
</g>
<defs>
<radialGradient id="paint0_radial_196_383" cx="0" cy="0" r="1" gradientUnits="userSpaceOnUse" gradientTransform="translate(600.5 314.5) rotate(90) scale(200.689)">
<stop stop-color="#C2DAF0" stop-opacity="0.8"/>
<stop offset="1" stop-color="#C2DAF0" stop-opacity="0"/>
</radialGradient>
<clipPath id="clip0_196_383">
<rect width="1200" height="628" fill="white"/>
</clipPath>
</defs>
</svg>
