<?xml version="1.0" encoding="utf-8" standalone="yes"?>
<!DOCTYPE svg PUBLIC "-//W3C//DTD SVG 1.1//EN" "http://www.w3.org/Graphics/SVG/1.1/DTD/svg11.dtd">
<svg width="912" height="612" viewBox="0 0 912 612" style="fill:none;stroke:none;fill-rule:evenodd;clip-rule:evenodd;stroke-linecap:round;stroke-linejoin:round;stroke-miterlimit:1.5;" version="1.1" xmlns="http://www.w3.org/2000/svg" xmlns:xlink="http://www.w3.org/1999/xlink"><style class="text-font-style fontImports" data-font-family="Roboto">@import url('https://fonts.googleapis.com/css2?family=Roboto:wght@400;700&amp;display=block');</style><g id="items" style="isolation: isolate"><g id="blend" style="mix-blend-mode: normal"><g id="g-root-cp_0_g-0_m7ymh02a3f9h-fill" data-item-order="-393930" transform="translate(13.999969482421875, 350)"><g id="cp_0_g-0_m7ymh02a3f9h-fill" stroke="none" fill="#f5f5f5"><g><path d="M 770.431031 35.076C 718.491031 43.6195 666.702031 47.6605 616.597031 48.4262C 612.914031 53.567 610.000031 58 610.000031 58C 610.000031 58 607.135031 53.6394 603.495031 48.5528C 548.271031 48.7772 495.284031 45.1057 446.626031 39.2117C 443.926031 43.07 442.000031 46 442.000031 46C 442.000031 46 439.640031 42.4092 436.484031 37.9435C 407.776031 34.2406 380.665031 29.7859 355.600031 24.9365C 328.459031 19.6856 303.307031 15.9057 279.858031 13.4621C 276.532031 18.1484 274.000031 22 274.000031 22C 274.000031 22 271.026031 17.4742 267.289031 12.2656C 206.377031 7.0277 157.208031 11.1192 114.366031 21.9861C 109.892731 28.0782 106.000031 34 106.000031 34C 106.000031 34 103.599931 30.3477 100.403131 25.829C 67.578831 35.5801 38.337031 49.3914 10.000031 65.9999L 10.000031 109.9212C 98.000031 50.4996 185.500031 48.5084 334.000031 76.2489C 366.619031 82.3423 403.938031 91.951 444.381031 102.3641C 537.448031 126.327 647.059031 154.549 754.000031 153.992C 794.741031 153.78 835.096031 149.656 874.000031 138.641L 874.000031 11.6386C 845.450031 20.0099 816.631031 26.7435 787.805031 32.0491C 782.762031 38.7557 778.000031 46 778.000031 46C 778.000031 46 774.560031 40.7651 770.431031 35.076Z"></path></g></g></g><g id="g-root-cp_1_g-1_dcbm842a3g27-fill" data-item-order="-393920" transform="translate(62, 254)"><g id="cp_1_g-1_dcbm842a3g27-fill" stroke="none" fill="#edf4ff"><g><path d="M 58 10C 84.5088 10 106 31.5256 106 58.0769C 106 79.2628 92.016 93.2821 76.5024 106C 70.5824 110.859 58 130 58 130C 58 130 45.4176 110.853 39.4976 106C 23.9776 93.2885 10 79.2692 10 58.0769C 10 31.5256 31.4912 10 58 10ZM 58 98C 80.0914 98 98 80.0914 98 58C 98 35.9086 80.0914 18 58 18C 35.9086 18 18 35.9086 18 58C 18 80.0914 35.9086 98 58 98Z"></path></g></g></g><g id="g-root-cp_2_g-2_8wi43o2a3guh-fill" data-item-order="-393916" transform="translate(230, 242)"><g id="cp_2_g-2_8wi43o2a3guh-fill" stroke="none" fill="#e3fff2"><g><path d="M 58 10C 84.5088 10 106 31.5256 106 58.0769C 106 79.2628 92.016 93.2821 76.5024 106C 70.5824 110.859 58 130 58 130C 58 130 45.4176 110.853 39.4976 106C 23.9776 93.2885 10 79.2692 10 58.0769C 10 31.5256 31.4912 10 58 10ZM 58 98C 80.0914 98 98 80.0914 98 58C 98 35.9086 80.0914 18 58 18C 35.9086 18 18 35.9086 18 58C 18 80.0914 35.9086 98 58 98Z"></path></g></g></g><g id="g-root-cp_3_g-3_4golz82a3hmr-fill" data-item-order="-393912" transform="translate(398, 266)"><g id="cp_3_g-3_4golz82a3hmr-fill" stroke="none" fill="#fffbda"><g><path d="M 58 10C 84.5088 10 106 31.5256 106 58.0769C 106 79.2628 92.016 93.2821 76.5024 106C 70.5824 110.859 58 130 58 130C 58 130 45.4176 110.853 39.4976 106C 23.9776 93.2885 10 79.2692 10 58.0769C 10 31.5256 31.4912 10 58 10ZM 58 98C 80.0914 98 98 80.0914 98 58C 98 35.9086 80.0914 18 58 18C 35.9086 18 18 35.9086 18 58C 18 80.0914 35.9086 98 58 98Z"></path></g></g></g><g id="g-root-cp_4_g-4_4golz82a3hmt-fill" data-item-order="-393908" transform="translate(566, 278)"><g id="cp_4_g-4_4golz82a3hmt-fill" stroke="none" fill="#fff2e5"><g><path d="M 58 10C 84.5088 10 106 31.5256 106 58.0769C 106 79.2628 92.016 93.2821 76.5024 106C 70.5824 110.859 58 130 58 130C 58 130 45.4176 110.853 39.4976 106C 23.9776 93.2885 10 79.2692 10 58.0769C 10 31.5256 31.4912 10 58 10ZM 58 98C 80.0914 98 98 80.0914 98 58C 98 35.9086 80.0914 18 58 18C 35.9086 18 18 35.9086 18 58C 18 80.0914 35.9086 98 58 98Z"></path></g></g></g><g id="g-root-cp_5_g-5_1ums4sk2a3f2n-fill" data-item-order="-393904" transform="translate(734, 266)"><g id="cp_5_g-5_1ums4sk2a3f2n-fill" stroke="none" fill="#ffeceb"><g><path d="M 58 10C 84.5088 10 106 31.5256 106 58.0769C 106 79.2628 92.016 93.2821 76.5024 106C 70.5824 110.859 58 130 58 130C 58 130 45.4176 110.853 39.4976 106C 23.9776 93.2885 10 79.2692 10 58.0769C 10 31.5256 31.4912 10 58 10ZM 58 98C 80.0914 98 98 80.0914 98 58C 98 35.9086 80.0914 18 58 18C 35.9086 18 18 35.9086 18 58C 18 80.0914 35.9086 98 58 98Z"></path></g></g></g><g id="g-root-tx_crearcit_1cvi4as2a3hfu-fill" data-item-order="0" transform="translate(38, 122)"><g id="tx_crearcit_1cvi4as2a3hfu-fill" stroke="none" fill="#4e88e7"><g><text style="font: bold 20px Roboto, sans-serif; white-space: pre;" font-weight="bold" font-size="20px" font-family="Roboto, sans-serif"><tspan x="42.55" y="34" dominant-baseline="ideographic">Crear cita a </tspan><tspan x="19.45" y="58" dominant-baseline="ideographic">Google Calendar</tspan></text></g></g></g><g id="g-root-tx_vincular_zko30k2a3fv0-fill" data-item-order="0" transform="translate(206, 122)"><g id="tx_vincular_zko30k2a3fv0-fill" stroke="none" fill="#3cc583"><g><text style="font: bold 20px Roboto, sans-serif; white-space: pre;" font-weight="bold" font-size="20px" font-family="Roboto, sans-serif"><tspan x="28.04" y="34" dominant-baseline="ideographic">Vincular Client </tspan><tspan x="22.98" y="58" dominant-baseline="ideographic">com a assistent</tspan></text></g></g></g><g id="g-root-tx_enviarre_hu0jlw2a3f2e-fill" data-item-order="0" transform="translate(374, 122)"><g id="tx_enviarre_hu0jlw2a3f2e-fill" stroke="none" fill="#e0cb15"><g><text style="font: bold 20px Roboto, sans-serif; white-space: pre;" font-weight="bold" font-size="20px" font-family="Roboto, sans-serif"><tspan x="41.58" y="34" dominant-baseline="ideographic">Recordatori</tspan><tspan x="48.89" y="58" dominant-baseline="ideographic">automàtic</tspan></text></g></g></g><g id="g-root-tx_gestiona_4ik18k2a3gnc-fill" data-item-order="0" transform="translate(542, 122)"><g id="tx_gestiona_4ik18k2a3gnc-fill" stroke="none" fill="#de8431"><g><text style="font: bold 20px Roboto, sans-serif; white-space: pre;" font-weight="bold" font-size="20px" font-family="Roboto, sans-serif"><tspan x="39.45" y="34" dominant-baseline="ideographic">Completar </tspan><tspan x="37.72" y="58" dominant-baseline="ideographic">informació</tspan></text></g></g></g><g id="g-root-tx_generarf_1lt0jt02a3fnm-fill" data-item-order="0" transform="translate(710, 122)"><g id="tx_generarf_1lt0jt02a3fnm-fill" stroke="none" fill="#e55753"><g><text style="font: bold 20px Roboto, sans-serif; white-space: pre;" font-weight="bold" font-size="20px" font-family="Roboto, sans-serif"><tspan x="16.05" y="34" dominant-baseline="ideographic">Generar Factura</tspan></text></g></g></g><g id="g-root-tx_crearaut_1cxdjk42a3ggb-fill" data-item-order="0" transform="translate(710, 158)"><g id="tx_crearaut_1cxdjk42a3ggb-fill" stroke="none" fill="#484848"><g><text style="font: 15px Roboto, sans-serif; white-space: pre;" font-size="15px" font-family="Roboto, sans-serif"><tspan x="16.2" y="28" dominant-baseline="ideographic">Indicar cost a Google </tspan><tspan x="12.64" y="46" dominant-baseline="ideographic">Calendar permet crear </tspan><tspan x="24.13" y="64" dominant-baseline="ideographic">automàticament la </tspan><tspan x="63.17" y="82" dominant-baseline="ideographic">factura</tspan></text></g></g></g><g id="g-root-tx_programa_18gb39g2a3f2b-fill" data-item-order="0" transform="translate(38, 182)"><g id="tx_programa_18gb39g2a3f2b-fill" stroke="none" fill="#484848"><g><text style="font: 15px Roboto, sans-serif; white-space: pre;" font-size="15px" font-family="Roboto, sans-serif"><tspan x="28.92" y="28" dominant-baseline="ideographic">Programar la cita a </tspan><tspan x="36.84" y="46" dominant-baseline="ideographic">Google Calendar</tspan></text></g></g></g><g id="g-root-tx_afegirel_m97kn82a3hfx-fill" data-item-order="0" transform="translate(206, 182)"><g id="tx_afegirel_m97kn82a3hfx-fill" stroke="none" fill="#484848"><g><text style="font: 15px Roboto, sans-serif; white-space: pre;" font-size="15px" font-family="Roboto, sans-serif"><tspan x="21.91" y="28" dominant-baseline="ideographic">Afegir el client com a </tspan><tspan x="28.35" y="46" dominant-baseline="ideographic">participant a la cita</tspan></text></g></g></g><g id="g-root-tx_enviarun_8ydjd02a3fv3-fill" data-item-order="0" transform="translate(374, 182)"><g id="tx_enviarun_8ydjd02a3fv3-fill" stroke="none" fill="#484848"><g><text style="font: 15px Roboto, sans-serif; white-space: pre;" font-size="15px" font-family="Roboto, sans-serif"><tspan x="15.43" y="28" dominant-baseline="ideographic">Enviar un recordatori al </tspan><tspan x="32.09" y="46" dominant-baseline="ideographic">client el dia abans</tspan></text></g></g></g><g id="g-root-tx_sincroni_2qj442a3hfl-fill" data-item-order="0" transform="translate(542, 182)"><g id="tx_sincroni_2qj442a3hfl-fill" stroke="none" fill="#484848"><g><text style="font: 15px Roboto, sans-serif; white-space: pre;" font-size="15px" font-family="Roboto, sans-serif"><tspan x="13.02" y="28" dominant-baseline="ideographic">Ampliar informació de </tspan><tspan x="17.93" y="46" dominant-baseline="ideographic">la visita des del PRM</tspan></text></g></g></g><g id="g-root-ic_cale_v2z5ms2a696o-fill" data-item-order="0" transform="translate(86, 278)"></g><g id="g-root-ic_add_1lw4x8k2a4tfz-fill" data-item-order="0" transform="translate(254, 266)"></g><g id="g-root-ic_1_v4ukw42a4u1a-fill" data-item-order="0" transform="translate(422, 290)"></g><g id="g-root-ic_shar_7qbt02a3gud-fill" data-item-order="0" transform="translate(590, 302)"></g><g id="g-root-ic_invo_18hk1fo2a3h8k-fill" data-item-order="0" transform="translate(758, 290)"></g><g id="g-root-cp_0_g-0_m7ymh02a3f9h-stroke" data-item-order="-393930" transform="translate(13.999969482421875, 350)"><g id="cp_0_g-0_m7ymh02a3f9h-stroke" fill="none" stroke-linecap="round" stroke-linejoin="round" stroke-miterlimit="4" stroke="#969696" stroke-width="2"><g><path d="M 10 109.9211C 98 50.4996 185.5 48.5083 334 76.2489C 441.6818 96.3645 600.5872 154.7908 754 153.9919C 794.7415 153.7797 835.0956 149.6556 874 138.6413M 838.9792 79.049169L 812.6604 84.044969M 790.0814 87.289869L 763.4412 90.040269M 740.6868 91.570269L 713.9083 92.512669M 664.3159 92.132469L 691.113 92.657369M 614.7961 89.426469L 641.5397 91.150069M 565.4117 84.813269L 592.0837 87.521269M 516.2077 78.639869L 542.7722 82.150469M 467.1878 71.207769L 493.6329 75.359569M 418.3102 62.801869L 444.6657 67.440069M 369.507 53.742769L 395.8435 58.690469M 321.2437 44.678369L 347.1464 49.492169M 273.9383 37.696869L 299.613 41.147369M 226.3069 33.826469L 252.1495 35.482769M 204.4239 33.355469L 178.5227 34.054869M 156.6906 35.837169L 131.0671 39.500569M 109.6285 44.017369L 84.7263 51.104269M 64.144 58.586369L 40.4944 69.135569M 21.1493 79.397669L 10 86.019269M 874 69.986069L 861.1353 73.678269M 770.431031 35.076C 718.491331 43.6195 666.701931 47.6605 616.597231 48.4262M 603.495131 48.5528C 548.270931 48.7772 495.283531 45.1057 446.625531 39.2117M 436.484031 37.9435C 407.775631 34.2406 380.665431 29.7859 355.600031 24.9365C 328.459431 19.6856 303.307431 15.9057 279.858431 13.4621M 267.289431 12.2656C 206.377131 7.0277 157.208131 11.1192 114.366431 21.9861M 100.403131 25.829C 67.578831 35.5801 38.337031 49.3914 10.000031 65.9999M 874.000031 11.6386C 845.449631 20.0099 816.630731 26.7435 787.805431 32.0491"></path></g></g></g><g id="g-root-cp_1_g-1_dcbm842a3g27-stroke" data-item-order="-393920" transform="translate(62, 254)"><g id="cp_1_g-1_dcbm842a3g27-stroke" fill="none" stroke-linecap="round" stroke-linejoin="round" stroke-miterlimit="4" stroke="#4e88e7" stroke-width="2"><g><path d="M 58 10C 84.5088 10 106 31.5256 106 58.0769C 106 79.2628 92.016 93.2821 76.5024 106C 70.5824 110.859 58 130 58 130C 58 130 45.4176 110.8526 39.4976 106C 23.9776 93.2885 10 79.2692 10 58.0769C 10 31.5256 31.4912 10 58 10ZM 58 98C 80.0914 98 98 80.0914 98 58C 98 35.9086 80.0914 18 58 18C 35.9086 18 18 35.9086 18 58C 18 80.0914 35.9086 98 58 98Z"></path></g></g></g><g id="g-root-cp_2_g-2_8wi43o2a3guh-stroke" data-item-order="-393916" transform="translate(230, 242)"><g id="cp_2_g-2_8wi43o2a3guh-stroke" fill="none" stroke-linecap="round" stroke-linejoin="round" stroke-miterlimit="4" stroke="#3cc583" stroke-width="2"><g><path d="M 58 10C 84.5088 10 106 31.5256 106 58.0769C 106 79.2628 92.016 93.2821 76.5024 106C 70.5824 110.859 58 130 58 130C 58 130 45.4176 110.8526 39.4976 106C 23.9776 93.2885 10 79.2692 10 58.0769C 10 31.5256 31.4912 10 58 10ZM 58 98C 80.0914 98 98 80.0914 98 58C 98 35.9086 80.0914 18 58 18C 35.9086 18 18 35.9086 18 58C 18 80.0914 35.9086 98 58 98Z"></path></g></g></g><g id="g-root-cp_3_g-3_4golz82a3hmr-stroke" data-item-order="-393912" transform="translate(398, 266)"><g id="cp_3_g-3_4golz82a3hmr-stroke" fill="none" stroke-linecap="round" stroke-linejoin="round" stroke-miterlimit="4" stroke="#e0cb15" stroke-width="2"><g><path d="M 58 10C 84.5088 10 106 31.5256 106 58.0769C 106 79.2628 92.016 93.2821 76.5024 106C 70.5824 110.859 58 130 58 130C 58 130 45.4176 110.8526 39.4976 106C 23.9776 93.2885 10 79.2692 10 58.0769C 10 31.5256 31.4912 10 58 10ZM 58 98C 80.0914 98 98 80.0914 98 58C 98 35.9086 80.0914 18 58 18C 35.9086 18 18 35.9086 18 58C 18 80.0914 35.9086 98 58 98Z"></path></g></g></g><g id="g-root-cp_4_g-4_4golz82a3hmt-stroke" data-item-order="-393908" transform="translate(566, 278)"><g id="cp_4_g-4_4golz82a3hmt-stroke" fill="none" stroke-linecap="round" stroke-linejoin="round" stroke-miterlimit="4" stroke="#de8431" stroke-width="2"><g><path d="M 58 10C 84.5088 10 106 31.5256 106 58.0769C 106 79.2628 92.016 93.2821 76.5024 106C 70.5824 110.859 58 130 58 130C 58 130 45.4176 110.8526 39.4976 106C 23.9776 93.2885 10 79.2692 10 58.0769C 10 31.5256 31.4912 10 58 10ZM 58 98C 80.0914 98 98 80.0914 98 58C 98 35.9086 80.0914 18 58 18C 35.9086 18 18 35.9086 18 58C 18 80.0914 35.9086 98 58 98Z"></path></g></g></g><g id="g-root-cp_5_g-5_1ums4sk2a3f2n-stroke" data-item-order="-393904" transform="translate(734, 266)"><g id="cp_5_g-5_1ums4sk2a3f2n-stroke" fill="none" stroke-linecap="round" stroke-linejoin="round" stroke-miterlimit="4" stroke="#e55753" stroke-width="2"><g><path d="M 58 10C 84.5088 10 106 31.5256 106 58.0769C 106 79.2628 92.016 93.2821 76.5024 106C 70.5824 110.859 58 130 58 130C 58 130 45.4176 110.8526 39.4976 106C 23.9776 93.2885 10 79.2692 10 58.0769C 10 31.5256 31.4912 10 58 10ZM 58 98C 80.0914 98 98 80.0914 98 58C 98 35.9086 80.0914 18 58 18C 35.9086 18 18 35.9086 18 58C 18 80.0914 35.9086 98 58 98Z"></path></g></g></g><g id="g-root-tx_crearcit_1cvi4as2a3hfu-fill" data-item-order="0" transform="translate(38, 122)"><g id="tx_crearcit_1cvi4as2a3hfu-fill" stroke="none" fill="#4e88e7"><g><text style="font: bold 20px Roboto, sans-serif; white-space: pre;" font-weight="bold" font-size="20px" font-family="Roboto, sans-serif"><tspan x="42.55" y="34" dominant-baseline="ideographic">Crear cita a </tspan><tspan x="19.45" y="58" dominant-baseline="ideographic">Google Calendar</tspan></text></g></g></g><g id="g-root-tx_vincular_zko30k2a3fv0-fill" data-item-order="0" transform="translate(206, 122)"><g id="tx_vincular_zko30k2a3fv0-fill" stroke="none" fill="#3cc583"><g><text style="font: bold 20px Roboto, sans-serif; white-space: pre;" font-weight="bold" font-size="20px" font-family="Roboto, sans-serif"><tspan x="28.04" y="34" dominant-baseline="ideographic">Vincular Client </tspan><tspan x="22.98" y="58" dominant-baseline="ideographic">com a assistent</tspan></text></g></g></g><g id="g-root-tx_enviarre_hu0jlw2a3f2e-fill" data-item-order="0" transform="translate(374, 122)"><g id="tx_enviarre_hu0jlw2a3f2e-fill" stroke="none" fill="#e0cb15"><g><text style="font: bold 20px Roboto, sans-serif; white-space: pre;" font-weight="bold" font-size="20px" font-family="Roboto, sans-serif"><tspan x="41.58" y="34" dominant-baseline="ideographic">Recordatori</tspan><tspan x="48.89" y="58" dominant-baseline="ideographic">automàtic</tspan></text></g></g></g><g id="g-root-tx_gestiona_4ik18k2a3gnc-fill" data-item-order="0" transform="translate(542, 122)"><g id="tx_gestiona_4ik18k2a3gnc-fill" stroke="none" fill="#de8431"><g><text style="font: bold 20px Roboto, sans-serif; white-space: pre;" font-weight="bold" font-size="20px" font-family="Roboto, sans-serif"><tspan x="39.45" y="34" dominant-baseline="ideographic">Completar </tspan><tspan x="37.72" y="58" dominant-baseline="ideographic">informació</tspan></text></g></g></g><g id="g-root-tx_generarf_1lt0jt02a3fnm-fill" data-item-order="0" transform="translate(710, 122)"><g id="tx_generarf_1lt0jt02a3fnm-fill" stroke="none" fill="#e55753"><g><text style="font: bold 20px Roboto, sans-serif; white-space: pre;" font-weight="bold" font-size="20px" font-family="Roboto, sans-serif"><tspan x="16.05" y="34" dominant-baseline="ideographic">Generar Factura</tspan></text></g></g></g><g id="g-root-tx_crearaut_1cxdjk42a3ggb-fill" data-item-order="0" transform="translate(710, 158)"><g id="tx_crearaut_1cxdjk42a3ggb-fill" stroke="none" fill="#484848"><g><text style="font: 15px Roboto, sans-serif; white-space: pre;" font-size="15px" font-family="Roboto, sans-serif"><tspan x="16.2" y="28" dominant-baseline="ideographic">Indicar cost a Google </tspan><tspan x="12.64" y="46" dominant-baseline="ideographic">Calendar permet crear </tspan><tspan x="24.13" y="64" dominant-baseline="ideographic">automàticament la </tspan><tspan x="63.17" y="82" dominant-baseline="ideographic">factura</tspan></text></g></g></g><g id="g-root-tx_programa_18gb39g2a3f2b-fill" data-item-order="0" transform="translate(38, 182)"><g id="tx_programa_18gb39g2a3f2b-fill" stroke="none" fill="#484848"><g><text style="font: 15px Roboto, sans-serif; white-space: pre;" font-size="15px" font-family="Roboto, sans-serif"><tspan x="28.92" y="28" dominant-baseline="ideographic">Programar la cita a </tspan><tspan x="36.84" y="46" dominant-baseline="ideographic">Google Calendar</tspan></text></g></g></g><g id="g-root-tx_afegirel_m97kn82a3hfx-fill" data-item-order="0" transform="translate(206, 182)"><g id="tx_afegirel_m97kn82a3hfx-fill" stroke="none" fill="#484848"><g><text style="font: 15px Roboto, sans-serif; white-space: pre;" font-size="15px" font-family="Roboto, sans-serif"><tspan x="21.91" y="28" dominant-baseline="ideographic">Afegir el client com a </tspan><tspan x="28.35" y="46" dominant-baseline="ideographic">participant a la cita</tspan></text></g></g></g><g id="g-root-tx_enviarun_8ydjd02a3fv3-fill" data-item-order="0" transform="translate(374, 182)"><g id="tx_enviarun_8ydjd02a3fv3-fill" stroke="none" fill="#484848"><g><text style="font: 15px Roboto, sans-serif; white-space: pre;" font-size="15px" font-family="Roboto, sans-serif"><tspan x="15.43" y="28" dominant-baseline="ideographic">Enviar un recordatori al </tspan><tspan x="32.09" y="46" dominant-baseline="ideographic">client el dia abans</tspan></text></g></g></g><g id="g-root-tx_sincroni_2qj442a3hfl-fill" data-item-order="0" transform="translate(542, 182)"><g id="tx_sincroni_2qj442a3hfl-fill" stroke="none" fill="#484848"><g><text style="font: 15px Roboto, sans-serif; white-space: pre;" font-size="15px" font-family="Roboto, sans-serif"><tspan x="13.02" y="28" dominant-baseline="ideographic">Ampliar informació de </tspan><tspan x="17.93" y="46" dominant-baseline="ideographic">la visita des del PRM</tspan></text></g></g></g><g id="g-root-ic_cale_v2z5ms2a696o-fill" data-item-order="0" transform="translate(86, 278)"></g><g id="g-root-ic_add_1lw4x8k2a4tfz-fill" data-item-order="0" transform="translate(254, 266)"></g><g id="g-root-ic_1_v4ukw42a4u1a-fill" data-item-order="0" transform="translate(422, 290)"></g><g id="g-root-ic_shar_7qbt02a3gud-fill" data-item-order="0" transform="translate(590, 302)"></g><g id="g-root-ic_invo_18hk1fo2a3h8k-fill" data-item-order="0" transform="translate(758, 290)"></g><g id="g-root-cp_0_g-0_m7ymh02a3f9h-stroke" data-item-order="-393930" transform="translate(13.999969482421875, 350)"><g id="cp_0_g-0_m7ymh02a3f9h-stroke" fill="none" stroke-linecap="round" stroke-linejoin="round" stroke-miterlimit="4" stroke="#969696" stroke-width="2"><g><path d="M 10 109.9211C 98 50.4996 185.5 48.5083 334 76.2489C 441.6818 96.3645 600.5872 154.7908 754 153.9919C 794.7415 153.7797 835.0956 149.6556 874 138.6413M 838.9792 79.049169L 812.6604 84.044969M 790.0814 87.289869L 763.4412 90.040269M 740.6868 91.570269L 713.9083 92.512669M 664.3159 92.132469L 691.113 92.657369M 614.7961 89.426469L 641.5397 91.150069M 565.4117 84.813269L 592.0837 87.521269M 516.2077 78.639869L 542.7722 82.150469M 467.1878 71.207769L 493.6329 75.359569M 418.3102 62.801869L 444.6657 67.440069M 369.507 53.742769L 395.8435 58.690469M 321.2437 44.678369L 347.1464 49.492169M 273.9383 37.696869L 299.613 41.147369M 226.3069 33.826469L 252.1495 35.482769M 204.4239 33.355469L 178.5227 34.054869M 156.6906 35.837169L 131.0671 39.500569M 109.6285 44.017369L 84.7263 51.104269M 64.144 58.586369L 40.4944 69.135569M 21.1493 79.397669L 10 86.019269M 874 69.986069L 861.1353 73.678269M 770.431031 35.076C 718.491331 43.6195 666.701931 47.6605 616.597231 48.4262M 603.495131 48.5528C 548.270931 48.7772 495.283531 45.1057 446.625531 39.2117M 436.484031 37.9435C 407.775631 34.2406 380.665431 29.7859 355.600031 24.9365C 328.459431 19.6856 303.307431 15.9057 279.858431 13.4621M 267.289431 12.2656C 206.377131 7.0277 157.208131 11.1192 114.366431 21.9861M 100.403131 25.829C 67.578831 35.5801 38.337031 49.3914 10.000031 65.9999M 874.000031 11.6386C 845.449631 20.0099 816.630731 26.7435 787.805431 32.0491"></path></g></g></g><g id="g-root-cp_1_g-1_dcbm842a3g27-stroke" data-item-order="-393920" transform="translate(62, 254)"><g id="cp_1_g-1_dcbm842a3g27-stroke" fill="none" stroke-linecap="round" stroke-linejoin="round" stroke-miterlimit="4" stroke="#4e88e7" stroke-width="2"><g><path d="M 58 10C 84.5088 10 106 31.5256 106 58.0769C 106 79.2628 92.016 93.2821 76.5024 106C 70.5824 110.859 58 130 58 130C 58 130 45.4176 110.8526 39.4976 106C 23.9776 93.2885 10 79.2692 10 58.0769C 10 31.5256 31.4912 10 58 10ZM 58 98C 80.0914 98 98 80.0914 98 58C 98 35.9086 80.0914 18 58 18C 35.9086 18 18 35.9086 18 58C 18 80.0914 35.9086 98 58 98Z"></path></g></g></g><g id="g-root-cp_2_g-2_8wi43o2a3guh-stroke" data-item-order="-393916" transform="translate(230, 242)"><g id="cp_2_g-2_8wi43o2a3guh-stroke" fill="none" stroke-linecap="round" stroke-linejoin="round" stroke-miterlimit="4" stroke="#3cc583" stroke-width="2"><g><path d="M 58 10C 84.5088 10 106 31.5256 106 58.0769C 106 79.2628 92.016 93.2821 76.5024 106C 70.5824 110.859 58 130 58 130C 58 130 45.4176 110.8526 39.4976 106C 23.9776 93.2885 10 79.2692 10 58.0769C 10 31.5256 31.4912 10 58 10ZM 58 98C 80.0914 98 98 80.0914 98 58C 98 35.9086 80.0914 18 58 18C 35.9086 18 18 35.9086 18 58C 18 80.0914 35.9086 98 58 98Z"></path></g></g></g><g id="g-root-cp_3_g-3_4golz82a3hmr-stroke" data-item-order="-393912" transform="translate(398, 266)"><g id="cp_3_g-3_4golz82a3hmr-stroke" fill="none" stroke-linecap="round" stroke-linejoin="round" stroke-miterlimit="4" stroke="#e0cb15" stroke-width="2"><g><path d="M 58 10C 84.5088 10 106 31.5256 106 58.0769C 106 79.2628 92.016 93.2821 76.5024 106C 70.5824 110.859 58 130 58 130C 58 130 45.4176 110.8526 39.4976 106C 23.9776 93.2885 10 79.2692 10 58.0769C 10 31.5256 31.4912 10 58 10ZM 58 98C 80.0914 98 98 80.0914 98 58C 98 35.9086 80.0914 18 58 18C 35.9086 18 18 35.9086 18 58C 18 80.0914 35.9086 98 58 98Z"></path></g></g></g><g id="g-root-cp_4_g-4_4golz82a3hmt-stroke" data-item-order="-393908" transform="translate(566, 278)"><g id="cp_4_g-4_4golz82a3hmt-stroke" fill="none" stroke-linecap="round" stroke-linejoin="round" stroke-miterlimit="4" stroke="#de8431" stroke-width="2"><g><path d="M 58 10C 84.5088 10 106 31.5256 106 58.0769C 106 79.2628 92.016 93.2821 76.5024 106C 70.5824 110.859 58 130 58 130C 58 130 45.4176 110.8526 39.4976 106C 23.9776 93.2885 10 79.2692 10 58.0769C 10 31.5256 31.4912 10 58 10ZM 58 98C 80.0914 98 98 80.0914 98 58C 98 35.9086 80.0914 18 58 18C 35.9086 18 18 35.9086 18 58C 18 80.0914 35.9086 98 58 98Z"></path></g></g></g><g id="g-root-cp_5_g-5_1ums4sk2a3f2n-stroke" data-item-order="-393904" transform="translate(734, 266)"><g id="cp_5_g-5_1ums4sk2a3f2n-stroke" fill="none" stroke-linecap="round" stroke-linejoin="round" stroke-miterlimit="4" stroke="#e55753" stroke-width="2"><g><path d="M 58 10C 84.5088 10 106 31.5256 106 58.0769C 106 79.2628 92.016 93.2821 76.5024 106C 70.5824 110.859 58 130 58 130C 58 130 45.4176 110.8526 39.4976 106C 23.9776 93.2885 10 79.2692 10 58.0769C 10 31.5256 31.4912 10 58 10ZM 58 98C 80.0914 98 98 80.0914 98 58C 98 35.9086 80.0914 18 58 18C 35.9086 18 18 35.9086 18 58C 18 80.0914 35.9086 98 58 98Z"></path></g></g></g><g id="g-root-tx_crearcit_1cvi4as2a3hfu-stroke" data-item-order="0" transform="translate(38, 122)"></g><g id="g-root-tx_vincular_zko30k2a3fv0-stroke" data-item-order="0" transform="translate(206, 122)"></g><g id="g-root-tx_enviarre_hu0jlw2a3f2e-stroke" data-item-order="0" transform="translate(374, 122)"></g><g id="g-root-tx_gestiona_4ik18k2a3gnc-stroke" data-item-order="0" transform="translate(542, 122)"></g><g id="g-root-tx_generarf_1lt0jt02a3fnm-stroke" data-item-order="0" transform="translate(710, 122)"></g><g id="g-root-tx_crearaut_1cxdjk42a3ggb-stroke" data-item-order="0" transform="translate(710, 158)"></g><g id="g-root-tx_programa_18gb39g2a3f2b-stroke" data-item-order="0" transform="translate(38, 182)"></g><g id="g-root-tx_afegirel_m97kn82a3hfx-stroke" data-item-order="0" transform="translate(206, 182)"></g><g id="g-root-tx_enviarun_8ydjd02a3fv3-stroke" data-item-order="0" transform="translate(374, 182)"></g><g id="g-root-tx_sincroni_2qj442a3hfl-stroke" data-item-order="0" transform="translate(542, 182)"></g><g id="g-root-ic_cale_v2z5ms2a696o-stroke" data-item-order="0" transform="translate(86, 278)"><g id="ic_cale_v2z5ms2a696o-stroke" fill="none" stroke-linecap="round" stroke-linejoin="round" stroke-miterlimit="4" stroke="#4e88e7" stroke-width="2"><g><path d="M 52.919998 11C 55.129139 11 56.919998 12.790861 56.919998 15L 56.919998 46.779999L 46.779999 57L 15.08 57C 12.870861 57 11.08 55.209141 11.08 53L 11.08 15.08C 11.08 12.870861 12.870861 11.08 15.08 11.08ZM 21.220001 21.220001L 46.779999 21.220001L 46.779999 46.779999L 21.220001 46.779999ZM 46.779999 11L 46.779999 21.220001L 57 21.220001M 11 46.779999L 21.220001 46.779999L 21.220001 57M 46.779999 57L 46.779999 46.779999L 57 46.779999M 25.779999 30.940001C 25.779999 29.83543 26.67543 28.940001 27.780001 28.940001L 29.32 28.940001C 30.284945 28.85446 31.215519 29.320919 31.724396 30.145224C 32.233269 30.96953 32.233269 32.010468 31.724396 32.834778C 31.215519 33.659081 30.284945 34.125542 29.32 34.040001C 30.284945 33.95446 31.215519 34.420918 31.724396 35.245224C 32.233269 36.06953 32.233269 37.11047 31.724396 37.934776C 31.215519 38.759079 30.284945 39.22554 29.32 39.139999L 27.84 39.139999C 26.73543 39.139999 25.84 38.244568 25.84 37.139999M 40.639999 39.120003L 40.639999 30C 40.64386 29.610031 40.425026 29.251991 40.07621 29.077583C 39.72739 28.903175 39.309658 28.942928 39 29.18L 36.559998 31.02M 38.599998 39.120003L 42.68 39.120003"></path></g></g></g><g id="g-root-ic_add_1lw4x8k2a4tfz-stroke" data-item-order="0" transform="translate(254, 266)"><g id="ic_add_1lw4x8k2a4tfz-stroke" fill="none" stroke-linecap="round" stroke-linejoin="round" stroke-miterlimit="4" stroke="#3cc583" stroke-width="2"><g><path d="M 34.099998 41.100403C 34.099998 45.100399 30.9 48.300201 26.89996 48.300201C 22.89996 48.300201 19.699959 45.100399 19.699959 41.100403C 19.699959 37.100403 22.89996 33.900398 26.89996 33.900398C 30.9 33.900398 34.099998 37.100403 34.099998 41.100403ZM 26.900021 25.700199C 18.30002 25.700199 11.5 32.700001 11.5 41.099998C 11.5 49.5 18.500019 56.5 26.900021 56.5C 30.299999 56.5 33.5 55.299999 36.099998 53.5M 34.0998 41.100601L 34.0998 44.100601C 34.0998 46.300598 35.899799 48.300598 38.299801 48.300598C 40.699799 48.300598 42.499802 46.500599 42.499802 44.100601L 42.499802 41.100601M 44.5 35.5C 51.127399 35.5 56.5 30.127399 56.5 23.5C 56.5 16.87258 51.127399 11.5 44.5 11.5C 37.872601 11.5 32.5 16.87258 32.5 23.5C 32.5 30.127399 37.872601 35.5 44.5 35.5ZM 44.5 17.5L 44.5 29.5M 38.5 23.5L 50.5 23.5"></path></g></g></g><g id="g-root-ic_1_v4ukw42a4u1a-stroke" data-item-order="0" transform="translate(422, 290)"><g id="ic_1_v4ukw42a4u1a-stroke" fill="none" stroke-linecap="round" stroke-linejoin="round" stroke-miterlimit="4" stroke="#e0cb15" stroke-width="2"><g><path d="M 29.200001 25.448C 25.589127 24.436092 21.712719 25.17485 18.727125 27.443901C 15.741531 29.712954 13.991843 33.250031 14 37L 14 48C 14 49.656857 12.656855 51 11 51L 41 51C 39.343147 51 38 49.656857 38 48L 38 37.372002M 28.83 55C 28.406694 56.199478 27.272982 57.001625 26.001001 57.001625C 24.729019 57.001625 23.595306 56.199478 23.172001 55M 26 21.001999L 26 25.001999M 33 23.004C 33 29.631418 38.372581 35.003998 45 35.003998C 51.627419 35.003998 57 29.631418 57 23.004002C 57 16.376583 51.627419 11.004001 45 11.004001C 38.372581 11.004001 33 16.376583 33 23.004002ZM 49 23.004L 45 23.004L 45 17.004"></path></g></g></g><g id="g-root-ic_shar_7qbt02a3gud-stroke" data-item-order="0" transform="translate(590, 302)"><g id="ic_shar_7qbt02a3gud-stroke" fill="none" stroke-linecap="round" stroke-linejoin="round" stroke-miterlimit="4" stroke="#de8431" stroke-width="2"><g><path d="M 33 46.501999C 33 48.987282 35.014717 51.001999 37.5 51.001999C 39.985283 51.001999 42 48.987282 42 46.501999C 42 44.01672 39.985283 42.001999 37.5 42.001999C 35.014717 42.001999 33 44.01672 33 46.501999ZM 48 52.501999C 48 54.987282 50.014717 57.001999 52.5 57.001999C 54.985283 57.001999 57 54.987282 57 52.501999C 57 50.01672 54.985283 48.001999 52.5 48.001999C 50.014717 48.001999 48 50.01672 48 52.501999ZM 48 37.501999C 48 39.987282 50.014717 42.001999 52.5 42.001999C 54.985283 42.001999 57 39.987282 57 37.501999C 57 35.016716 54.985283 33.001999 52.5 33.001999C 50.014717 33.001999 48 35.016716 48 37.501999ZM 41.349998 44.192001L 48.650002 39.812M 41.676003 48.172001L 48.324001 50.832001M 29 47L 13 47C 11.895431 47 11 46.104568 11 45L 11 17C 11 15.895431 11.895431 15 13 15L 49 15C 50.104568 15 51 15.895431 51 17L 51 29M 21 11.002L 21 21.001999M 41 11.002L 41 21.001999M 11 25.001999L 51 25.001999"></path></g></g></g><g id="g-root-ic_invo_18hk1fo2a3h8k-stroke" data-item-order="0" transform="translate(758, 290)"><g id="ic_invo_18hk1fo2a3h8k-stroke" fill="none" stroke-linecap="round" stroke-linejoin="round" stroke-miterlimit="4" stroke="#e55753" stroke-width="2"><g><path d="M 24.007999 35L 44.007999 35C 44.007999 35 45.007999 35 45.007999 36L 45.007999 50C 45.007999 50 45.007999 51 44.007999 51L 24.007999 51C 24.007999 51 23.007999 51 23.007999 50L 23.007999 36C 23.007999 36 23.007999 35 24.007999 35M 23.007999 39L 45.007999 39M 29.007999 35L 29.007999 51M 35.007999 35L 35.007999 51M 51 55C 51 56.104568 50.104568 57 49 57L 19 57C 17.895432 57 17 56.104568 17 55L 17 13C 17 11.895431 17.895432 11 19 11L 37 11L 51 25ZM 37 11L 37 23C 37 24.104568 37.895432 25 39 25L 51 25M 27.007999 27L 27.007999 29M 27.007999 17L 27.007999 19M 23 27L 29 27C 30.10457 27 31 26.10457 31 25C 31 23.895432 30.10457 23 29 23L 25 23C 23.895432 23 23 22.104568 23 21C 23 19.895432 23.895432 19 25 19L 31 19"></path></g></g></g></g></g></svg>